<svg width="70" height="68" viewBox="0 0 70 68" fill="none" xmlns="http://www.w3.org/2000/svg">
<path d="M35 0C15.6998 0 0 15.2513 0 34C0 52.7487 15.6998 68 35 68C54.3002 68 70 52.7461 70 34C70 15.2539 54.3002 0 35 0ZM35 62.7328C18.6929 62.7328 5.42213 49.8439 5.42213 34C5.42213 18.1561 18.6929 5.26721 35 5.26721C51.3071 5.26721 64.5779 18.1561 64.5779 34C64.5779 49.8439 51.3099 62.7328 35 62.7328Z" fill="black"/>
<path d="M48.5554 31.1295H37.7112V20.5951C37.7112 19.1413 36.4993 17.9614 35 17.9614C33.5008 17.9614 32.2889 19.1413 32.2889 20.5951V31.1295H21.4447C19.9454 31.1295 18.7335 32.3094 18.7335 33.7632C18.7335 35.2169 19.9454 36.3969 21.4447 36.3969H32.2889V46.9313C32.2889 48.385 33.5008 49.5649 35 49.5649C36.4993 49.5649 37.7112 48.385 37.7112 46.9313V36.3969H48.5554C50.0547 36.3969 51.2666 35.2169 51.2666 33.7632C51.2666 32.3094 50.0547 31.1295 48.5554 31.1295Z" fill="black"/>
</svg>
