<svg width="19" height="18" viewBox="0 0 19 18" fill="none" xmlns="http://www.w3.org/2000/svg">
<g clip-path="url(#clip0)">
<path d="M2.71997 2.45514V17.2289C2.7216 17.6543 3.08523 17.9988 3.53364 17.9998H15.443C15.8925 17.9988 16.2562 17.6543 16.2567 17.2289V2.45514C16.2562 2.02929 15.8925 1.68481 15.443 1.68429H11.4883C11.3578 0.637959 10.3572 -0.110232 9.25272 0.0133511C8.32762 0.116337 7.5982 0.807885 7.48895 1.68429H3.53364C3.08468 1.68481 2.72051 2.02929 2.71997 2.45514ZM15.736 17.2289C15.736 17.3829 15.6045 17.5075 15.442 17.5075H3.53364C3.37113 17.5075 3.23959 17.3829 3.23959 17.2289V4.83617H15.7382L15.736 17.2289ZM9.48862 0.487085C10.2246 0.488115 10.8491 0.995834 10.9638 1.68429H8.02053C8.13413 0.998409 8.75539 0.491204 9.48862 0.487085ZM15.443 2.17553C15.6061 2.17553 15.7382 2.30118 15.7382 2.45514V4.3439H3.23959V2.45514C3.23959 2.30118 3.37113 2.17553 3.53364 2.17553H15.443Z" fill="#73AEFA"/>
<path d="M7.88878 7.49566H14.0275C14.1704 7.49566 14.2867 7.38547 14.2867 7.25004C14.2867 7.11359 14.1704 7.00391 14.0275 7.00391H7.88878C7.74529 7.00391 7.62952 7.11359 7.62952 7.25004C7.62952 7.38547 7.74529 7.49566 7.88878 7.49566Z" fill="#73AEFA"/>
<path d="M7.86498 11.2559H14.0037C14.1466 11.2559 14.2629 11.1457 14.2629 11.0098C14.2629 10.8739 14.1466 10.7637 14.0037 10.7637H7.86498C7.72149 10.7637 7.60571 10.8739 7.60571 11.0098C7.60571 11.1457 7.72149 11.2559 7.86498 11.2559Z" fill="#73AEFA"/>
<path d="M7.8651 15.0079H14.0038C14.1467 15.0079 14.2631 14.8972 14.2631 14.7618C14.2631 14.6258 14.1467 14.5156 14.0038 14.5156H7.8651C7.72161 14.5156 7.60583 14.6258 7.60583 14.7618C7.60583 14.8972 7.72161 15.0079 7.8651 15.0079Z" fill="#73AEFA"/>
<path d="M5.47478 7.63432C5.51555 7.68942 5.57805 7.72598 5.64762 7.73628H5.68622C5.74329 7.73628 5.79927 7.71774 5.84547 7.68376L7.49945 6.45926C7.62392 6.39077 7.66631 6.24042 7.59457 6.12301C7.52282 6.00509 7.36411 5.96493 7.24018 6.03342C7.21844 6.04474 7.19887 6.05968 7.18148 6.07667L5.74274 7.14308L5.49163 6.80375C5.40956 6.69252 5.24758 6.66472 5.13018 6.74299C5.01277 6.82074 4.98342 6.97419 5.06604 7.08541L5.47478 7.63432Z" fill="#73AEFA"/>
<path d="M5.47476 11.3558C5.51553 11.4109 5.57803 11.448 5.64761 11.4583H5.6862C5.74327 11.4578 5.79925 11.4393 5.84545 11.4053L7.49943 10.1803C7.61575 10.0999 7.64021 9.94596 7.55487 9.83628C7.47008 9.72712 7.30756 9.70343 7.19179 9.78479C7.18799 9.78737 7.18364 9.79045 7.17983 9.79354L5.74273 10.861L5.49161 10.5217C5.42748 10.4001 5.27148 10.3507 5.14375 10.4109C5.01548 10.4717 4.9633 10.6195 5.02743 10.7415C5.03776 10.7606 5.05026 10.7791 5.06602 10.7951L5.47476 11.3558Z" fill="#73AEFA"/>
<path d="M5.47486 15.0771C5.51562 15.1317 5.57813 15.1682 5.6477 15.1785H5.68629C5.74336 15.1785 5.79935 15.16 5.84555 15.126L7.49952 13.901C7.61584 13.8202 7.6403 13.6662 7.55496 13.557C7.47017 13.4473 7.30766 13.4247 7.19188 13.505C7.18808 13.5081 7.18373 13.5107 7.17993 13.5138L5.74119 14.5781L5.49062 14.2388C5.408 14.1276 5.24603 14.1003 5.12862 14.178C5.01068 14.2563 4.98241 14.4097 5.06449 14.521L5.47486 15.0771Z" fill="#73AEFA"/>
</g>
<defs>
<clipPath id="clip0">
<rect width="19" height="18" fill="white"/>
</clipPath>
</defs>
</svg>
