<svg xmlns="http://www.w3.org/2000/svg" width="35" height="45" viewBox="0 0 35 45"><g><g><g><path fill="#818181" d="M29.286 42.857H5.795c-2.004 0-3.687-1.661-3.687-3.676V6.45c0-2.004 1.672-3.676 3.687-3.676H22.04v6.773c0 2.604 2.101 4.694 4.705 4.694h6.227v24.939c0 2.015-1.672 3.676-3.687 3.676zM24.185 4.415l7.32 7.684h-4.759a2.552 2.552 0 0 1-2.561-2.55zm-.311-3.44a1.073 1.073 0 0 0-.771-.343H5.795c-3.194 0-5.83 2.626-5.83 5.82V39.18C-.035 42.374 2.6 45 5.795 45h23.491c3.194 0 5.83-2.626 5.83-5.82V13.193c0-.279-.129-.546-.31-.75z"/></g><g><path fill="#818181" d="M26.36 35.462H8.72c-.589 0-1.071.482-1.071 1.072 0 .59.482 1.071 1.071 1.071h17.651c.59 0 1.072-.482 1.072-1.071 0-.59-.483-1.072-1.083-1.072z"/></g><g><path fill="#818181" d="M12.053 23.93l4.416-4.747v11.703c0 .59.482 1.072 1.071 1.072.59 0 1.072-.483 1.072-1.072V19.183l4.415 4.748c.215.224.494.343.783.343.257 0 .525-.097.728-.29a1.068 1.068 0 0 0 .054-1.51l-6.28-6.742a1.08 1.08 0 0 0-.782-.343c-.3 0-.579.129-.782.343l-6.28 6.741a1.068 1.068 0 0 0 .053 1.511c.45.407 1.125.375 1.532-.053z"/></g></g></g></svg>