<svg width="71" height="67" viewBox="0 0 71 67" fill="none" xmlns="http://www.w3.org/2000/svg">
<path d="M27.4839 4.32251H4.58063V10.8064H27.4839V4.32251ZM25.1935 8.64509H6.87095V6.4838H25.1935V8.64509Z" fill="black"/>
<path d="M4.58063 12.9678H6.87095V15.1291H4.58063V12.9678Z" fill="black"/>
<path d="M9.16132 12.9678H27.4839V15.1291H9.16132V12.9678Z" fill="black"/>
<path d="M4.58063 17.2903H17.1774V19.4516H4.58063V17.2903Z" fill="black"/>
<path d="M4.58063 21.6128H17.1774V23.7741H4.58063V21.6128Z" fill="black"/>
<path d="M4.58063 56.1936H27.4839V58.3549H4.58063V56.1936Z" fill="black"/>
<path d="M25.1935 60.5161H27.4839V62.6774H25.1935V60.5161Z" fill="black"/>
<path d="M4.58063 60.5161H22.9032V62.6774H4.58063V60.5161Z" fill="black"/>
<path d="M67.5645 28.0968C69.4586 28.0968 71 26.6422 71 24.8548V3.24194C71 1.45455 69.4586 0 67.5645 0H42.371C40.4769 0 38.9355 1.45455 38.9355 3.24194V12.9677H32.0645V3.24194C32.0645 1.45455 30.5231 0 28.629 0H3.43548C1.54139 0 0 1.45455 0 3.24194V24.8548C0 26.6422 1.54139 28.0968 3.43548 28.0968H12.5968V38.9032H3.43548C1.54139 38.9032 0 40.3578 0 42.1452V63.7581C0 65.5455 1.54139 67 3.43548 67H28.629C30.5231 67 32.0645 65.5455 32.0645 63.7581V54.0323H38.9355V63.7581C38.9355 65.5455 40.4769 67 42.371 67H67.5645C69.4586 67 71 65.5455 71 63.7581V42.1452C71 40.3578 69.4586 38.9032 67.5645 38.9032H58.4032V28.0968H67.5645ZM42.371 2.16129H67.5645C68.1955 2.16129 68.7097 2.64542 68.7097 3.24194V24.8548C68.7097 25.4514 68.1955 25.9355 67.5645 25.9355H51.5323V22.6936C51.5323 20.9062 49.9909 19.4516 48.0968 19.4516H41.2258V3.24194C41.2258 2.64542 41.74 2.16129 42.371 2.16129ZM22.9032 45.3871C22.2722 45.3871 21.7581 44.903 21.7581 44.3065V22.6936C21.7581 22.097 22.2722 21.6129 22.9032 21.6129H48.0968C48.7278 21.6129 49.2419 22.097 49.2419 22.6936V44.3065C49.2419 44.903 48.7278 45.3871 48.0968 45.3871H22.9032ZM19.6785 45.3871C20.1525 46.6417 21.4122 47.5484 22.9032 47.5484H25.1935V51.871H6.87097V45.3871H19.6785ZM45.8064 47.5484H48.0968C49.5878 47.5484 50.8475 46.6417 51.3215 45.3871H64.129V51.871H45.8064V47.5484ZM38.9355 15.129V19.4516H32.0645V15.129H38.9355ZM2.29032 24.8548V3.24194C2.29032 2.64542 2.8045 2.16129 3.43548 2.16129H28.629C29.26 2.16129 29.7742 2.64542 29.7742 3.24194V19.4516H22.9032C21.0091 19.4516 19.4677 20.9062 19.4677 22.6936V25.9355H3.43548C2.8045 25.9355 2.29032 25.4514 2.29032 24.8548ZM14.8871 28.0968H19.4677V38.9032H14.8871V28.0968ZM28.629 64.8387H3.43548C2.8045 64.8387 2.29032 64.3546 2.29032 63.7581V42.1452C2.29032 41.5486 2.8045 41.0645 3.43548 41.0645H19.4677V43.2258H4.58065V54.0323H27.4839V47.5484H29.7742V63.7581C29.7742 64.3546 29.26 64.8387 28.629 64.8387ZM32.0645 51.871V47.5484H38.9355V51.871H32.0645ZM68.7097 42.1452V63.7581C68.7097 64.3546 68.1955 64.8387 67.5645 64.8387H42.371C41.74 64.8387 41.2258 64.3546 41.2258 63.7581V47.5484H43.5161V54.0323H66.4194V43.2258H51.5323V41.0645H67.5645C68.1955 41.0645 68.7097 41.5486 68.7097 42.1452ZM56.1129 38.9032H51.5323V28.0968H56.1129V38.9032Z" fill="black"/>
<path d="M66.4193 4.32251H43.5161V10.8064H66.4193V4.32251ZM64.129 8.64509H45.8064V6.4838H64.129V8.64509Z" fill="black"/>
<path d="M43.5161 12.9678H45.8064V15.1291H43.5161V12.9678Z" fill="black"/>
<path d="M48.0967 12.9678H66.4193V15.1291H48.0967V12.9678Z" fill="black"/>
<path d="M53.8226 17.2903H66.4193V19.4516H53.8226V17.2903Z" fill="black"/>
<path d="M53.8226 21.6128H66.4193V23.7741H53.8226V21.6128Z" fill="black"/>
<path d="M43.5161 56.1936H66.4193V58.3549H43.5161V56.1936Z" fill="black"/>
<path d="M64.129 60.5161H66.4194V62.6774H64.129V60.5161Z" fill="black"/>
<path d="M43.5161 60.5161H61.8387V62.6774H43.5161V60.5161Z" fill="black"/>
</svg>
