<svg width="21" height="24" viewBox="0 0 21 24" fill="none" xmlns="http://www.w3.org/2000/svg">
<path id="Combined Shape" fill-rule="evenodd" clip-rule="evenodd" d="M2.37097 0H18.629C19.9385 0 21 1.07452 21 2.4V21.6C21 22.9255 19.9385 24 18.629 24H2.37097C1.06152 24 0 22.9255 0 21.6V2.4C0 1.07452 1.06152 0 2.37097 0ZM18.629 2.05714H2.37097C2.1839 2.05714 2.03226 2.21065 2.03226 2.4V21.6C2.03226 21.7894 2.1839 21.9429 2.37097 21.9429H18.629C18.8161 21.9429 18.9677 21.7894 18.9677 21.6V2.4C18.9677 2.21065 18.8161 2.05714 18.629 2.05714ZM16.0096 6.19745C16.5708 6.19745 17.0257 6.65795 17.0257 7.22602C17.0257 7.74674 16.6435 8.17709 16.1475 8.2452L16.0096 8.25459H4.4334C3.87221 8.25459 3.41728 7.79408 3.41728 7.22602C3.41728 6.70529 3.79955 6.27494 4.29552 6.20684L4.4334 6.19745H16.0096ZM14.3161 12.9526C14.3161 12.3845 13.8611 11.924 13.2999 11.924H4.4334L4.29552 11.9334C3.79955 12.0015 3.41728 12.4319 3.41728 12.9526C3.41728 13.5207 3.87221 13.9812 4.4334 13.9812H13.2999L13.4378 13.9718C13.9338 13.9037 14.3161 13.4733 14.3161 12.9526Z" fill="#191648"/>
</svg>
