<svg width="24" height="24" viewBox="0 0 24 24" fill="none" xmlns="http://www.w3.org/2000/svg">
<g id="Group 2">
<g id="alert-circle">
<circle id="Combined Shape" cx="12" cy="12" r="11" stroke="#191648" stroke-width="1.5" stroke-linecap="round" stroke-linejoin="round"/>
</g>
<path id="?" fill-rule="evenodd" clip-rule="evenodd" d="M12.5849 12.6204C12.4717 12.9303 12.4389 13.2759 12.4866 13.6572H10.6812C10.6216 13.2282 10.6365 12.8349 10.7259 12.4774C10.8153 12.1199 10.9464 11.7922 11.1192 11.4943C11.2919 11.1964 11.4886 10.9193 11.709 10.6631C11.9295 10.4069 12.138 10.1567 12.3347 9.91238C12.5313 9.66809 12.6951 9.42678 12.8262 9.18845C12.9573 8.95011 13.0228 8.6939 13.0228 8.41982C13.0228 7.99082 12.8947 7.64524 12.6385 7.38307C12.3823 7.1209 12.0278 6.98982 11.575 6.98982C11.2056 6.98982 10.8719 7.07324 10.574 7.24007C10.2761 7.4069 9.99601 7.63332 9.73384 7.91932L8.58984 6.8647C8.98309 6.41186 9.45082 6.03947 9.99303 5.74751C10.5352 5.45555 11.146 5.30957 11.8252 5.30957C12.29 5.30957 12.719 5.37213 13.1122 5.49726C13.5055 5.62238 13.8421 5.81007 14.1222 6.06032C14.4022 6.31057 14.6227 6.6204 14.7835 6.98982C14.9444 7.35924 15.0248 7.78824 15.0248 8.27682C15.0248 8.65815 14.9563 9.00076 14.8193 9.30463C14.6822 9.60851 14.5124 9.89749 14.3098 10.1716C14.1073 10.4457 13.8898 10.7078 13.6574 10.9581C13.425 11.2083 13.2165 11.4705 13.0318 11.7446C12.8471 12.0187 12.6981 12.3106 12.5849 12.6204ZM12.5492 17.3216C12.2929 17.5837 11.9742 17.7148 11.5928 17.7148C11.2115 17.7148 10.8957 17.5837 10.6455 17.3216C10.3952 17.0594 10.2701 16.7257 10.2701 16.3206C10.2701 15.9154 10.3952 15.5817 10.6455 15.3196C10.8957 15.0574 11.2115 14.9263 11.5928 14.9263C11.9742 14.9263 12.2929 15.0574 12.5492 15.3196C12.8054 15.5817 12.9335 15.9154 12.9335 16.3206C12.9335 16.7257 12.8054 17.0594 12.5492 17.3216Z" fill="#191648"/>
</g>
</svg>
