<svg xmlns="http://www.w3.org/2000/svg" width="27" height="27" viewBox="0 0 27 27"><g><g><g><path d="M11.57 1.977V.323h1.654v1.654z"/></g><g><path d="M8.26 1.977V.323h1.655v1.654z"/></g><g><path d="M22.298.323h-7.42v1.654h7.42A2.482 2.482 0 0 1 24.78 4.46v18.198a2.482 2.482 0 0 1-2.482 2.482H4.1a2.482 2.482 0 0 1-2.482-2.482V4.46A2.482 2.482 0 0 1 4.1 1.977h2.505V.323H4.1A4.141 4.141 0 0 0-.036 4.459v18.198A4.141 4.141 0 0 0 4.1 26.793h18.198a4.141 4.141 0 0 0 4.136-4.136V4.46A4.141 4.141 0 0 0 22.298.323z"/></g><g><g><text dominant-baseline="text-before-edge" style="font-kerning:normal" fill-opacity=".95" font-family="'Google Sans','GoogleSans-Regular'" font-size="18" font-style="none" font-weight="400" transform="translate(7 2)"><tspan>X</tspan></text></g></g></g></g></svg>