<svg id="electric-light-bulb" xmlns="http://www.w3.org/2000/svg" width="32.634" height="29.638" viewBox="0 0 32.634 29.638">
  <defs>
    <style>
      .cls-1 {
        fill: #010002;
      }
    </style>
  </defs>
  <path id="Path_49" data-name="Path 49" class="cls-1" d="M149.042,74.165a.574.574,0,0,0-.574-.574,6.014,6.014,0,0,0-6.007,6.007.574.574,0,0,0,1.148,0,4.865,4.865,0,0,1,4.86-4.86A.573.573,0,0,0,149.042,74.165Z" transform="translate(-132.406 -69.895)"/>
  <path id="Path_50" data-name="Path 50" class="cls-1" d="M108.305,42.911a8.71,8.71,0,0,0,1.841,5.384l.018.022c2.511,3.486,1.887,5.144,1.887,5.147a.574.574,0,0,0,.277.763.564.564,0,0,0,.243.054.573.573,0,0,0,.52-.33c.1-.22.924-2.274-2.025-6.346a.593.593,0,0,0-.041-.051,7.573,7.573,0,0,1-1.57-4.643,7.646,7.646,0,1,1,13.7,4.669c-2.951,4.075-2.1,6.152-1.991,6.376a.568.568,0,0,0,.749.268.58.58,0,0,0,.292-.751c-.007-.017-.664-1.708,1.869-5.207a8.713,8.713,0,0,0,1.818-5.355,8.793,8.793,0,0,0-17.587,0Z" transform="translate(-100.661 -33.208)"/>
  <path id="Path_51" data-name="Path 51" class="cls-1" d="M166.506,326.1v-.488a1.412,1.412,0,0,0-1.41-1.41h-7.732a1.411,1.411,0,0,0-1.41,1.41v.488a1.412,1.412,0,0,0,1.41,1.41H165.1A1.411,1.411,0,0,0,166.506,326.1Zm-9.4,0v-.488a.263.263,0,0,1,.262-.262H165.1a.263.263,0,0,1,.262.262v.488a.263.263,0,0,1-.262.262h-7.732A.262.262,0,0,1,157.1,326.1Z" transform="translate(-144.947 -302.818)"/>
  <path id="Path_52" data-name="Path 52" class="cls-1" d="M181.532,383.412a.574.574,0,0,0-.574.574V385.5a.574.574,0,0,0,.336.522l3.092,1.411a.573.573,0,0,0,.483,0l3.1-1.463a.573.573,0,0,0,.329-.519v-1.462a.574.574,0,1,0-1.148,0v1.1l-2.531,1.195-2.514-1.147v-1.146A.573.573,0,0,0,181.532,383.412Z" transform="translate(-168.186 -357.848)"/>
  <path id="Path_53" data-name="Path 53" class="cls-1" d="M357.38,255.752a.574.574,0,0,0-.121-.8l-3.892-2.87a.574.574,0,1,0-.681.923l3.892,2.87a.574.574,0,0,0,.8-.121Z" transform="translate(-327.576 -235.681)"/>
  <path id="Path_54" data-name="Path 54" class="cls-1" d="M43.688,25.19a.574.574,0,0,0,.682-.924l-3.98-2.934a.574.574,0,0,0-.681.924Z" transform="translate(-36.689 -21.22)"/>
  <path id="Path_55" data-name="Path 55" class="cls-1" d="M43.879,249.289l-4.16,3.067a.574.574,0,0,0,.682.924l4.16-3.067a.574.574,0,0,0-.682-.924Z" transform="translate(-36.699 -233.088)"/>
  <path id="Path_56" data-name="Path 56" class="cls-1" d="M355.092,24.086a.574.574,0,0,0,.682.924l3.723-2.745a.574.574,0,1,0-.681-.923Z" transform="translate(-329.812 -21.228)"/>
  <path id="Path_57" data-name="Path 57" class="cls-1" d="M388.875,156.933h-4.388a.574.574,0,1,0,0,1.148h4.388a.574.574,0,1,0,0-1.148Z" transform="translate(-356.815 -147.354)"/>
  <path id="Path_58" data-name="Path 58" class="cls-1" d="M5.676,157.507a.574.574,0,0,0-.574-.574H.574a.574.574,0,0,0,0,1.148H5.1A.574.574,0,0,0,5.676,157.507Z" transform="translate(0 -147.354)"/>
</svg>
