<svg xmlns="http://www.w3.org/2000/svg" width="35" height="35" viewBox="0 0 35 35">
  <defs>
    <linearGradient id="feedback-a" x1="0%" x2="100%" y1="0%" y2="100%">
      <stop offset="0%" stop-color="#6DB5F8"/>
      <stop offset="47.717%" stop-color="#7590FB"/>
      <stop offset="100%" stop-color="#7C6FFE"/>
    </linearGradient>
    <linearGradient id="feedback-b" x1="0%" x2="100%" y1="47.337%" y2="52.663%">
      <stop offset="0%" stop-color="#6DB5F8"/>
      <stop offset="47.717%" stop-color="#7590FB"/>
      <stop offset="100%" stop-color="#7C6FFE"/>
    </linearGradient>
    <linearGradient id="feedback-c" x1="0%" x2="100%" y1="49.465%" y2="50.535%">
      <stop offset="0%" stop-color="#6DB5F8"/>
      <stop offset="47.717%" stop-color="#7590FB"/>
      <stop offset="100%" stop-color="#7C6FFE"/>
    </linearGradient>
  </defs>
  <g fill="none">
    <path fill="url(#feedback-a)" d="M31.2402344,5.46875 L30.2148438,5.46875 L30.2148438,3.07617188 C30.2148438,1.3799707 28.834873,0 27.1386719,0 C25.4424707,0 24.0625,1.3799707 24.0625,3.07617188 L24.0625,3.9159668 C24.0625,4.97854492 23.3489648,5.92457031 22.3271973,6.21646484 L21.328125,6.50193359 L21.328125,6.49414062 C21.328125,5.92785156 20.8690234,5.46875 20.3027344,5.46875 L16.2011719,5.46875 C15.6348828,5.46875 15.1757812,5.92785156 15.1757812,6.49414062 L15.1757812,11.0742188 L3.07617188,11.0742188 C1.3799707,11.0742188 0,12.4541895 0,14.1503906 L0,33.9746094 C0,34.3527734 0.208154297,34.7002441 0.541542969,34.8786621 C0.693164063,34.959873 0.859414062,35 1.02532227,35 C1.22424805,35 1.42262695,34.942168 1.59414063,34.8277344 L5.43744141,32.265625 L24.9511719,32.265625 C26.647373,32.265625 28.0273438,30.8856543 28.0273438,29.1894531 L28.0273438,18.4570312 L31.2402344,18.4570312 C33.3133691,18.4570312 35,16.7704004 35,14.6972656 L35,9.22851562 C35,7.15538086 33.3133691,5.46875 31.2402344,5.46875 Z M17.2265625,7.51953125 L19.2773438,7.51953125 L19.2773438,16.40625 L17.2265625,16.40625 L17.2265625,7.51953125 Z M25.9765625,29.1894531 C25.9765625,29.7548535 25.5165723,30.2148438 24.9511719,30.2148438 L5.12695312,30.2148438 C4.92454102,30.2148438 4.72664062,30.2747949 4.55820313,30.3871094 L2.05078125,32.0587012 L2.05078125,14.1503906 C2.05078125,13.5849902 2.51077148,13.125 3.07617188,13.125 L15.1757812,13.125 L15.1757812,17.4316406 C15.1757812,17.9979297 15.6348828,18.4570312 16.2011719,18.4570312 L20.3027344,18.4570312 C20.8295117,18.4570312 21.2630469,18.0595898 21.3210156,17.5483301 C22.234502,18.1308887 23.3085645,18.4570312 24.4255566,18.4570312 L25.9765625,18.4570312 L25.9765625,29.1894531 Z M32.9492188,14.6972656 C32.9492188,15.6395996 32.1825684,16.40625 31.2402344,16.40625 L24.4255566,16.40625 C23.1788184,16.40625 22.0144531,15.7772754 21.328125,14.7488086 L21.328125,8.63481445 L22.8905469,8.18842773 C24.7880664,7.64626953 26.1132813,5.88936523 26.1132813,3.9159668 L26.1132813,3.07617188 C26.1132813,2.51077148 26.5732715,2.05078125 27.1386719,2.05078125 C27.7040723,2.05078125 28.1640625,2.51077148 28.1640625,3.07617188 L28.1640625,6.49414062 C28.1640625,7.06042969 28.6231641,7.51953125 29.1894531,7.51953125 L31.2402344,7.51953125 C32.1825684,7.51953125 32.9492188,8.28618164 32.9492188,9.22851562 L32.9492188,14.6972656 Z"/>
    <path fill="url(#feedback-b)" d="M5.12695312,19.2773438 L11.9628906,19.2773438 C12.5291797,19.2773438 12.9882812,18.8182422 12.9882812,18.2519531 C12.9882812,17.6856641 12.5291797,17.2265625 11.9628906,17.2265625 L5.12695312,17.2265625 C4.56066406,17.2265625 4.1015625,17.6856641 4.1015625,18.2519531 C4.1015625,18.8182422 4.56066406,19.2773438 5.12695312,19.2773438 Z"/>
    <path fill="url(#feedback-c)" d="M22.9003906 21.328125L5.12695312 21.328125C4.56066406 21.328125 4.1015625 21.7872266 4.1015625 22.3535156 4.1015625 22.9198047 4.56066406 23.3789062 5.12695312 23.3789062L22.9003906 23.3789062C23.4666797 23.3789062 23.9257812 22.9198047 23.9257812 22.3535156 23.9257812 21.7872266 23.4666797 21.328125 22.9003906 21.328125zM22.9003906 25.4296875L5.12695312 25.4296875C4.56066406 25.4296875 4.1015625 25.8887891 4.1015625 26.4550781 4.1015625 27.0213672 4.56066406 27.4804688 5.12695312 27.4804688L22.9003906 27.4804688C23.4666797 27.4804688 23.9257812 27.0213672 23.9257812 26.4550781 23.9257812 25.8887891 23.4666797 25.4296875 22.9003906 25.4296875z"/>
  </g>
</svg>
