<svg width="20" height="23" viewBox="0 0 20 23" fill="none" xmlns="http://www.w3.org/2000/svg">
<path d="M4.09182 19.4739C4.02813 19.4739 3.96649 19.4497 3.91776 19.4056C3.70695 19.2147 3.50209 19.0128 3.30885 18.8047C3.25817 18.7502 3.22971 18.6762 3.22974 18.5991C3.22976 18.5221 3.25827 18.4481 3.30898 18.3937C3.35969 18.3392 3.42846 18.3086 3.50016 18.3086C3.57185 18.3086 3.6406 18.3393 3.69128 18.3938C3.87371 18.5902 4.06695 18.7809 4.26587 18.961C4.30827 18.9994 4.33867 19.0509 4.35296 19.1085C4.36724 19.166 4.36471 19.227 4.34571 19.2829C4.32671 19.3389 4.29216 19.3873 4.24675 19.4214C4.20133 19.4556 4.14724 19.4739 4.09182 19.4739Z" fill="black"/>
<path d="M9.99998 21.7872C8.45161 21.7878 6.92676 21.3799 5.55917 20.5993C5.52784 20.5813 5.50012 20.5569 5.47758 20.5274C5.45504 20.4979 5.43812 20.4639 5.4278 20.4274C5.41747 20.3909 5.41393 20.3525 5.41739 20.3145C5.42085 20.2765 5.43123 20.2396 5.44795 20.206C5.46467 20.1723 5.48739 20.1425 5.51482 20.1182C5.54225 20.094 5.57385 20.0758 5.60782 20.0647C5.64179 20.0536 5.67746 20.0498 5.71279 20.0535C5.74813 20.0572 5.78244 20.0684 5.81376 20.0864C7.10291 20.8223 8.54038 21.2068 9.99998 21.206C11.8999 21.2143 13.7516 20.5628 15.2794 19.3486L9.04403 12.6443C8.9192 12.5107 8.82083 12.3512 8.75484 12.1756C8.73782 12.1372 8.72346 12.0975 8.71187 12.0568C8.69646 12.0033 8.68673 11.9585 8.677 11.9135C8.6586 11.8157 8.64909 11.7163 8.64863 11.6165V2.13829C7.40762 2.34311 6.22079 2.82727 5.16577 3.55912C4.11074 4.29097 3.21127 5.25402 2.52618 6.38529C1.84109 7.51656 1.38581 8.79058 1.19011 10.124C0.994414 11.4575 1.0627 12.8203 1.39052 14.1234C1.40937 14.1978 1.39997 14.2772 1.36439 14.3441C1.32881 14.411 1.26996 14.46 1.20079 14.4803C1.13162 14.5006 1.05779 14.4904 0.995547 14.4522C0.933305 14.4139 0.887747 14.3507 0.868895 14.2763C0.51398 12.8659 0.445819 11.3898 0.669049 9.94849C0.89228 8.50719 1.40166 7.13452 2.16254 5.92387C2.92341 4.71322 3.91792 3.69301 5.07839 2.93266C6.23885 2.17232 7.53804 1.68968 8.88754 1.51759C8.92542 1.51283 8.9638 1.51675 9.00017 1.52908C9.03654 1.5414 9.07007 1.56187 9.09855 1.58912C9.12704 1.61638 9.14984 1.6498 9.16546 1.68721C9.18108 1.72461 9.18916 1.76514 9.18917 1.80614V11.6165C9.18952 11.676 9.19513 11.7354 9.20592 11.7938C9.21052 11.8153 9.217 11.8461 9.22592 11.8769C9.23159 11.8967 9.23854 11.9162 9.24673 11.935C9.28713 12.0461 9.3482 12.1471 9.42619 12.232L15.8802 19.1719C15.9072 19.2009 15.9282 19.2357 15.9417 19.2741C15.9553 19.3124 15.9611 19.3534 15.9589 19.3944C15.9566 19.4354 15.9463 19.4753 15.9287 19.5117C15.911 19.5481 15.8864 19.58 15.8565 19.6054C14.1913 21.0266 12.1259 21.796 9.99998 21.7872Z" fill="black"/>
<path d="M2.30019 17.3026C2.25483 17.3027 2.21018 17.2905 2.17037 17.2671C2.13055 17.2438 2.09684 17.21 2.07235 17.169C1.92316 16.9193 1.78073 16.661 1.64911 16.4015C1.6321 16.368 1.62141 16.3312 1.61763 16.2933C1.61385 16.2553 1.61705 16.2169 1.62707 16.1803C1.63708 16.1437 1.6537 16.1096 1.67599 16.0799C1.69827 16.0502 1.72578 16.0255 1.75694 16.0072C1.78811 15.9889 1.82231 15.9774 1.85761 15.9733C1.8929 15.9693 1.9286 15.9727 1.96266 15.9835C1.99671 15.9942 2.02846 16.0121 2.0561 16.0361C2.08373 16.06 2.1067 16.0896 2.1237 16.1231C2.24911 16.3707 2.38505 16.6171 2.52721 16.8548C2.56599 16.9196 2.57923 16.9984 2.56403 17.0737C2.54882 17.149 2.50642 17.2147 2.44613 17.2564C2.40267 17.2867 2.35197 17.3028 2.30019 17.3026Z" fill="black"/>
<path d="M17.2189 18.024C17.1832 18.0242 17.1479 18.0167 17.115 18.0021C17.0821 17.9875 17.0522 17.966 17.027 17.9389L12.4189 12.9843C12.381 12.9436 12.3553 12.8918 12.3449 12.8353C12.3345 12.7789 12.3399 12.7204 12.3604 12.6673C12.381 12.6141 12.4158 12.5688 12.4603 12.5369C12.5049 12.505 12.5572 12.4881 12.6107 12.4883H19.1243C19.1624 12.4883 19.2 12.497 19.2348 12.5138C19.2696 12.5305 19.3007 12.555 19.326 12.5856C19.3513 12.6162 19.3704 12.6522 19.3819 12.6913C19.3934 12.7304 19.397 12.7716 19.3926 12.8123C19.1924 14.6754 18.5136 16.4417 17.4324 17.9133C17.4087 17.9455 17.379 17.972 17.3452 17.991C17.3114 18.01 17.2742 18.021 17.2362 18.0235L17.2189 18.024ZM13.2632 13.0695L17.1913 17.2929C18.0439 16.0479 18.6014 14.5983 18.8156 13.0695H13.2632Z" fill="black"/>
<path d="M19.1243 10.7447H11.0811C11.0094 10.7447 10.9406 10.7141 10.89 10.6596C10.8393 10.6051 10.8108 10.5312 10.8108 10.4541V1.80614C10.8108 1.76514 10.8189 1.72461 10.8345 1.68721C10.8501 1.6498 10.8729 1.61638 10.9014 1.58912C10.9299 1.56187 10.9634 1.5414 10.9998 1.52908C11.0362 1.51675 11.0745 1.51283 11.1124 1.51759C13.2255 1.77643 15.1945 2.79761 16.6984 4.41449C18.2022 6.03138 19.1519 8.14851 19.3927 10.4204C19.3971 10.4612 19.3935 10.5024 19.382 10.5415C19.3705 10.5806 19.3515 10.6167 19.3261 10.6473C19.3008 10.6779 19.2697 10.7025 19.2349 10.7192C19.2001 10.736 19.1624 10.7447 19.1243 10.7447ZM11.3513 10.1636H18.8154C18.5362 8.14212 17.6599 6.27078 16.3159 4.82573C14.9719 3.38069 13.2314 2.43852 11.3513 2.13829V10.1636Z" fill="black"/>
</svg>
