<svg width="20" height="23" viewBox="0 0 20 23" fill="none" xmlns="http://www.w3.org/2000/svg">
<path d="M5.30775 20.389C5.26029 20.3891 5.21365 20.3756 5.17261 20.35C4.93221 20.2004 4.69986 20.0364 4.47667 19.8586C4.41897 19.8128 4.38054 19.7443 4.36985 19.6681C4.35915 19.5918 4.37706 19.5141 4.41964 19.4521C4.46222 19.39 4.52598 19.3487 4.59688 19.3372C4.66779 19.3257 4.74005 19.345 4.79775 19.3908C5.00454 19.5556 5.21974 19.7078 5.44234 19.8467C5.49386 19.8787 5.53413 19.9281 5.5569 19.9872C5.57966 20.0463 5.58366 20.1118 5.56826 20.1736C5.55286 20.2354 5.51893 20.29 5.47173 20.3289C5.42453 20.3678 5.3667 20.389 5.30721 20.389H5.30775Z" fill="black"/>
<path d="M10.0108 21.7739C8.99482 21.7732 7.98543 21.5978 7.02084 21.2546C6.95275 21.2305 6.89637 21.1782 6.86411 21.1094C6.83185 21.0405 6.82635 20.9607 6.84882 20.8875C6.87129 20.8143 6.91989 20.7536 6.98393 20.719C7.04798 20.6843 7.12221 20.6784 7.1903 20.7025C8.56272 21.1951 10.0263 21.3194 11.4536 21.0646C12.881 20.8099 14.2287 20.1838 15.3795 19.2408L13.6379 17.3657C12.3894 18.2775 10.8843 18.6928 9.38177 18.5399C7.87922 18.387 6.47328 17.6756 5.4061 16.5281C4.33892 15.3806 3.6773 13.8689 3.5352 12.2534C3.3931 10.6378 3.77941 9.0196 4.6276 7.67735L2.88382 5.80391C1.90616 7.19944 1.29959 8.85439 1.12893 10.5919C0.958267 12.3293 1.22994 14.084 1.9149 15.6683C1.93067 15.703 1.93987 15.7407 1.94195 15.7792C1.94403 15.8177 1.93896 15.8563 1.92703 15.8926C1.9151 15.929 1.89655 15.9625 1.87247 15.9911C1.84838 16.0197 1.81924 16.0428 1.78674 16.0592C1.75425 16.0756 1.71905 16.0848 1.6832 16.0864C1.64734 16.088 1.61156 16.0819 1.57793 16.0684C1.54429 16.055 1.51349 16.0344 1.48731 16.0081C1.46113 15.9817 1.4401 15.95 1.42544 15.9147C0.676171 14.182 0.393737 12.258 0.610199 10.3614C0.82666 8.46469 1.53335 6.67125 2.65003 5.18466C2.67385 5.15314 2.70354 5.12734 2.7372 5.10892C2.77085 5.09051 2.80773 5.07988 2.84544 5.07772C2.88328 5.07514 2.92118 5.08135 2.95658 5.09594C2.99198 5.11054 3.02404 5.13316 3.05057 5.16228L5.12085 7.3853L4.96355 7.62766L5.14733 7.41465C5.17563 7.43669 5.19948 7.46466 5.21745 7.49687C5.23543 7.52908 5.24716 7.56487 5.25193 7.60208C5.25669 7.63972 5.25435 7.678 5.24507 7.71464C5.23578 7.75128 5.21973 7.78554 5.19787 7.81538C4.35707 9.04685 3.9542 10.5613 4.06222 12.0846C4.17024 13.6078 4.78201 15.0391 5.78674 16.1193C6.79148 17.1995 8.12275 17.8571 9.53949 17.9731C10.9562 18.0891 12.3648 17.6558 13.51 16.7516C13.539 16.7285 13.5719 16.7119 13.6069 16.7027C13.6419 16.6935 13.6783 16.6919 13.7138 16.698C13.7494 16.7041 13.7835 16.7178 13.8141 16.7383C13.8447 16.7588 13.8711 16.7857 13.8919 16.8173C13.8919 16.8191 13.9108 16.835 13.9122 16.8368L15.9792 19.0621C16.0059 19.0909 16.0267 19.1253 16.0402 19.1632C16.0537 19.2011 16.0597 19.2417 16.0578 19.2822C16.0558 19.3228 16.046 19.3624 16.0289 19.3986C16.0119 19.4349 15.9879 19.4668 15.9587 19.4925C14.2803 20.9681 12.1789 21.7742 10.0108 21.7739Z" fill="black"/>
<path d="M3.22169 18.5665C3.18457 18.5666 3.14786 18.5584 3.11382 18.5425C3.07978 18.5266 3.04916 18.5033 3.02385 18.4741C2.8333 18.2538 2.65394 18.0225 2.48655 17.7814C2.44354 17.7197 2.42508 17.6422 2.43521 17.5659C2.44535 17.4896 2.48326 17.4208 2.5406 17.3745C2.59795 17.3283 2.67003 17.3084 2.74099 17.3193C2.81195 17.3302 2.87597 17.371 2.91898 17.4326C3.07451 17.6569 3.24134 17.8719 3.41871 18.0766C3.45461 18.118 3.47849 18.1698 3.48741 18.2255C3.49633 18.2813 3.48991 18.3387 3.46892 18.3906C3.44794 18.4425 3.41331 18.4867 3.3693 18.5178C3.32528 18.5488 3.27379 18.5654 3.22114 18.5654L3.22169 18.5665Z" fill="black"/>
<path d="M17.125 18.1183C17.0534 18.1183 16.9846 18.0877 16.934 18.0332L14.8661 15.8099C14.8556 15.7988 14.8464 15.7878 14.8356 15.7785C14.7808 15.7317 14.7449 15.6639 14.7357 15.5893C14.7264 15.5148 14.7444 15.4392 14.7858 15.3786C15.3517 14.5495 15.7226 13.5855 15.8669 12.5689C15.8772 12.4966 15.9125 12.4311 15.9657 12.3856C16.0189 12.34 16.0861 12.3177 16.154 12.3231H16.208H19.135C19.1729 12.3228 19.2104 12.3312 19.2451 12.3476C19.2798 12.364 19.3109 12.388 19.3364 12.4182C19.3619 12.4483 19.3812 12.4839 19.393 12.5226C19.4049 12.5612 19.4091 12.6022 19.4053 12.6427C19.2192 14.6107 18.5002 16.4767 17.3375 18.0096C17.3135 18.0411 17.2837 18.0668 17.25 18.0852C17.2162 18.1035 17.1793 18.1141 17.1415 18.1163L17.125 18.1183ZM15.3575 15.5164L17.101 17.391C18.0279 16.0815 18.6233 14.536 18.8291 12.9054H16.3626C16.197 13.8404 15.8549 14.729 15.3575 15.5164Z" fill="black"/>
<path d="M16.1351 10.8734C16.0706 10.8733 16.0082 10.8484 15.9593 10.8031C15.9104 10.7579 15.8781 10.6953 15.8684 10.6267C15.724 9.61001 15.3531 8.64594 14.7873 7.81668C14.7459 7.7561 14.728 7.68063 14.7373 7.60612C14.7465 7.53162 14.7823 7.46387 14.837 7.41712C14.8477 7.40726 14.8579 7.39678 14.8676 7.38574L16.9354 5.16242C16.9621 5.13364 16.9942 5.11121 17.0295 5.09659C17.0648 5.08196 17.1025 5.07547 17.1403 5.07752C17.1781 5.07957 17.2151 5.09013 17.2488 5.10851C17.2826 5.12689 17.3123 5.15268 17.3362 5.18422C18.4986 6.7173 19.2171 8.58333 19.4027 10.5511C19.4065 10.5917 19.4023 10.6326 19.3904 10.6713C19.3786 10.71 19.3593 10.7455 19.3338 10.7757C19.3083 10.8058 19.2772 10.8299 19.2425 10.8463C19.2078 10.8626 19.1703 10.871 19.1324 10.8708H16.2097C16.1905 10.8708 16.1746 10.8708 16.1557 10.8708C16.1495 10.8731 16.1422 10.8734 16.1351 10.8734ZM16.363 10.2902H18.8295C18.6236 8.65954 18.0281 7.1141 17.1011 5.80463L15.3576 7.67923C15.855 8.46657 16.1971 9.35518 16.3627 10.2902H16.363Z" fill="black"/>
<path d="M13.6694 6.50175C13.6119 6.50176 13.5558 6.48201 13.5094 6.44538C12.487 5.64756 11.2561 5.21791 9.99279 5.21791C8.72949 5.21791 7.49857 5.64756 6.47617 6.44538C6.41994 6.48988 6.34987 6.50926 6.28064 6.49946C6.21142 6.48965 6.14841 6.45142 6.10482 6.39278C6.09611 6.38129 6.08653 6.37059 6.07617 6.36082L4.00725 4.13576C3.98031 4.10705 3.9593 4.07257 3.94557 4.03455C3.93184 3.99654 3.92571 3.95585 3.92757 3.91512C3.92943 3.87439 3.93925 3.83454 3.95637 3.79815C3.9735 3.76177 3.99756 3.72967 4.02698 3.70394C5.71468 2.23444 7.82054 1.43262 9.99225 1.43262C12.164 1.43262 14.2698 2.23444 15.9575 3.70394C15.9868 3.72962 16.0108 3.76163 16.0278 3.79788C16.0449 3.83414 16.0547 3.87384 16.0566 3.91443C16.0585 3.95501 16.0525 3.99557 16.0389 4.0335C16.0253 4.07142 16.0045 4.10586 15.9778 4.13459L13.9102 6.35791C13.8996 6.36848 13.8896 6.37973 13.8802 6.39162C13.855 6.42581 13.823 6.45347 13.7865 6.47253C13.75 6.4916 13.71 6.50159 13.6694 6.50175ZM9.99374 4.63761C11.2923 4.63433 12.5618 5.04997 13.6383 5.83078L15.3818 3.95646C13.83 2.69627 11.9383 2.01448 9.9936 2.01448C8.04888 2.01448 6.15719 2.69627 4.60536 3.95646L6.34887 5.83078C7.4251 5.04972 8.69447 4.63369 9.99292 4.63645L9.99374 4.63761Z" fill="black"/>
</svg>
