<svg xmlns="http://www.w3.org/2000/svg" width="42" height="30" viewBox="0 0 42 30">
  <defs>
    <linearGradient id="material-a" x1="0%" x2="100%" y1="24.49%" y2="75.51%">
      <stop offset="0%" stop-color="#6DB5F8"/>
      <stop offset="47.717%" stop-color="#7590FB"/>
      <stop offset="100%" stop-color="#7C6FFE"/>
    </linearGradient>
  </defs>
  <path fill="url(#material-a)" d="M41.1858887,2.49648034 C41.1831411,2.49648034 41.1803935,2.49648034 41.1777476,2.49648034 L41.1777476,2.49648034 L38.4179104,2.49648034 L38.4179104,1.55629904 C38.432768,1.18417772 38.1909769,0.849744692 37.8317503,0.745797924 C35.9157395,0.245921358 33.9427408,-0.00472611274 31.9620081,6.74721332e-05 C28.7055631,6.74721332e-05 24.2686567,0.729587901 20.9877883,4.05264249 C17.7313433,0.697167857 13.2618725,6.74721332e-05 10.0135685,6.74721332e-05 C8.03283582,-0.00472611274 6.05983718,0.245921358 4.14382632,0.745797924 C3.78459973,0.849744692 3.54280868,1.18417772 3.55766621,1.55629904 L3.55766621,2.48837533 L0.814111262,2.48837533 C0.364518318,2.48837533 0,2.85127721 0,3.29887645 L0,29.1862822 C0,29.6338814 0.364518318,29.9967833 0.814111262,29.9967833 C0.953934871,29.9963781 1.09131615,29.9601081 1.21302578,29.8914182 C1.29443691,29.8508931 9.43554953,25.417452 20.8005427,28.2704159 L20.9226594,28.2704159 L20.9959294,28.2704159 C21.0608548,28.278217 21.1263908,28.278217 21.1913161,28.2704159 C32.5888738,25.393137 40.7299864,29.8184731 40.7788331,29.8914182 C41.0306988,30.0361939 41.3410787,30.0361939 41.5929444,29.8914182 C41.8432836,29.7475542 41.99827,29.4822164 42,29.1943872 L42,3.30698146 C42,2.85938222 41.6355834,2.49648034 41.1858887,2.49648034 Z M1.62822252,27.8975854 L1.62822252,4.11748258 L3.57394844,4.11748258 L3.57394844,24.4448507 C3.56886024,24.8924499 3.92920624,25.2594043 4.37879919,25.2644699 C4.42276119,25.2649765 4.4667232,25.2619371 4.51017639,25.2553518 C6.19436906,24.9993347 7.8947422,24.8638797 9.59837178,24.8501012 C11.9582768,24.8093735 14.3083107,25.162752 16.550882,25.8956477 C11.4866011,25.2859482 6.34976255,25.9750768 1.62822252,27.8975854 Z M9.59837178,23.237204 C8.11760516,23.2405473 6.63856852,23.3352746 5.16960651,23.5208794 L5.16960651,2.19659493 C6.75468114,1.84504007 8.37333786,1.66561538 9.9972863,1.66166419 C13.0420624,1.66166419 17.2428765,2.35869515 20.1573948,5.63311967 L20.1818182,25.8227026 C18.4884668,24.720421 15.183175,23.237204 9.59837178,23.237204 Z M21.8100407,5.63311967 C24.724559,2.3911152 28.9253731,1.66166419 31.9701493,1.66166419 C33.5939959,1.66642588 35.2126526,1.84574926 36.797829,2.19659493 L36.797829,23.5208794 C35.3371099,23.3335523 33.8662144,23.2360895 32.3934871,23.229099 C26.8412483,23.229099 23.5278155,24.712316 21.8100407,25.8145975 L21.8100407,5.63311967 L21.8100407,5.63311967 Z M40.3636364,27.8975854 C35.6320217,25.9698085 30.4833786,25.2805786 25.4084125,25.8956477 C27.6615672,25.1601179 30.0227951,24.8066381 32.3934871,24.8501012 C34.1078019,24.8596246 35.8191655,24.9923442 37.5142469,25.2472468 C37.9587517,25.314417 38.3738467,25.0100739 38.4413161,24.5675403 C38.4479308,24.5242798 38.4509837,24.4805127 38.4504749,24.4367456 L38.4504749,4.11748258 L40.3962008,4.11748258 L40.3636364,27.8975854 Z"/>
</svg>
