<svg xmlns="http://www.w3.org/2000/svg" width="31" height="30" viewBox="0 0 31 30"><g><g><path d="M9.725 13.739c-.824 0-1.492.639-1.492 1.427s.668 1.427 1.492 1.427c.825 0 1.493-.639 1.493-1.427s-.668-1.427-1.493-1.427zm11.939 0c-.824 0-1.493.639-1.493 1.427s.669 1.427 1.493 1.427c.824 0 1.492-.639 1.492-1.427s-.668-1.427-1.492-1.427zm-5.97 0c-.824 0-1.492.639-1.492 1.427s.668 1.427 1.493 1.427c.824 0 1.492-.639 1.492-1.427s-.668-1.427-1.492-1.427zm0 13.759c-2.42 0-4.78-.646-6.824-1.869a1.242 1.242 0 0 0-1-.118l-4.413 1.36 1.422-4.222a1.1 1.1 0 0 0-.125-.956 11.904 11.904 0 0 1-1.953-6.527c0-6.8 5.784-12.332 12.894-12.332 7.109 0 12.893 5.532 12.893 12.332 0 6.8-5.784 12.332-12.893 12.332zm0-26.947C7.25.55.415 7.087.415 15.166c0 2.564.698 5.067 2.026 7.276L.47 28.29c-.136.407-.024.854.293 1.157.314.3.78.412 1.21.28l6.115-1.884a15.785 15.785 0 0 0 7.607 1.939c8.445 0 15.28-6.537 15.28-14.616 0-8.077-6.834-14.615-15.28-14.615z"/></g></g></svg>