<svg xmlns="http://www.w3.org/2000/svg" width="39" height="39" viewBox="0 0 39 39"><defs><clipPath id="yarra"><path fill="#fff" d="M0 19.5C0 8.73 8.73 0 19.5 0S39 8.73 39 19.5 30.27 39 19.5 39 0 30.27 0 19.5z"/></clipPath></defs><g><g><path fill="#fff" d="M0 19.5C0 8.73 8.73 0 19.5 0S39 8.73 39 19.5 30.27 39 19.5 39 0 30.27 0 19.5z"/><path fill="none" stroke="#707070" stroke-miterlimit="20" stroke-width="2" d="M0 19.5C0 8.73 8.73 0 19.5 0S39 8.73 39 19.5 30.27 39 19.5 39 0 30.27 0 19.5z" clip-path="url(&quot;#yarra&quot;)"/></g><g><g><path d="M17.313 12.624c.082 0 .16.032.218.09l6.8 6.8a.31.31 0 0 1 0 .436l-6.8 6.799a.31.31 0 1 1-.437-.437l6.58-6.58-6.58-6.58a.309.309 0 0 1 .219-.528z"/></g><g><path d="M17.313 12.624c.082 0 .16.032.218.09l6.8 6.8a.31.31 0 0 1 0 .436l-6.8 6.799a.31.31 0 1 1-.437-.437l6.58-6.58-6.58-6.58a.309.309 0 0 1 .219-.528z"/></g></g></g></svg>