<svg id="notes" xmlns="http://www.w3.org/2000/svg" width="26.159" height="26.154" viewBox="0 0 26.159 26.154">
  <path id="Path_39" data-name="Path 39" d="M18.16,26.228a1.314,1.314,0,0,0,1.264-.967l1.205-4.5,4.565-1.22a1.31,1.31,0,0,0,.922-1.6L23.75,9.118l.187-.7a1.308,1.308,0,0,0-.789-1.551L22.083,2.892a1.317,1.317,0,0,0-1.6-.926L12.7,4.054,6.169,2.3a1.282,1.282,0,0,0-.81.044L3.729.72A2.179,2.179,0,1,0,.646,3.8L3.618,6.774.057,20.067a1.311,1.311,0,0,0,.922,1.6l16.842,4.512a1.282,1.282,0,0,0,.339.045Zm7.113-8.063a.436.436,0,0,1-.305.533l-4.077,1.09L23.3,10.8ZM20.7,2.809a.436.436,0,0,1,.537.31l.93,3.473L14.38,4.5Zm-7.5,10.474-2.2-.733,1.467-1.468.733,2.2Zm-1.774-2.392-3.7-3.7a.436.436,0,1,0-.616.617l3.7,3.7-.616.617L4.037,5.959l.616-.616L5.886,6.576A.436.436,0,0,0,6.5,5.959L5.27,4.726l.616-.617,6.163,6.164ZM2.8,4.726,4.653,2.877l.616.616L3.42,5.343ZM.88,2.261a1.308,1.308,0,0,1,2.232-.925l.925.925L2.187,4.11l-.925-.925A1.3,1.3,0,0,1,.88,2.261ZM.9,20.3,4.331,7.486l5.562,5.562a.429.429,0,0,0,.16.1s.006,0,.01.006l2.871.959a.876.876,0,0,0,.278.044.863.863,0,0,0,.463-.136l5.012,1.346a.418.418,0,0,0,.113.015.436.436,0,0,0,.113-.857l-4.838-1.3a.9.9,0,0,0-.04-.218l-.959-2.871s0-.007-.007-.011a.432.432,0,0,0-.1-.159L6.234,3.226l16.55,4.433a.436.436,0,0,1,.309.535l-4.51,16.84a.436.436,0,0,1-.535.309L1.208,20.831A.435.435,0,0,1,.9,20.3Zm0,0" transform="translate(-0.001 -0.074)" fill="#fff"/>
  <path id="Path_40" data-name="Path 40" d="M271.091,153.669a.436.436,0,0,0,.113-.857l-6.2-1.661a.436.436,0,1,0-.226.842l6.2,1.661A.433.433,0,0,0,271.091,153.669Zm0,0" transform="translate(-250.937 -143.417)" fill="#fff"/>
  <path id="Path_41" data-name="Path 41" d="M294.786,213.057a.436.436,0,0,0,.112-.857l-4.215-1.127a.436.436,0,1,0-.225.842l4.215,1.128A.435.435,0,0,0,294.786,213.057Zm0,0" transform="translate(-275.309 -200.279)" fill="#fff"/>
  <path id="Path_42" data-name="Path 42" d="M84.153,261.708l-1.264-.339a.436.436,0,1,0-.226.842l1.264.339a.444.444,0,0,0,.113.015.436.436,0,0,0,.113-.857Zm0,0" transform="translate(-78.126 -248.007)" fill="#fff"/>
  <path id="Path_43" data-name="Path 43" d="M167.789,284.555a.436.436,0,0,0-.308-.534l-9.684-2.594a.436.436,0,0,0-.225.84l9.683,2.594a.425.425,0,0,0,.113.015.436.436,0,0,0,.421-.322Zm0,0" transform="translate(-149.245 -267.049)" fill="#fff"/>
  <path id="Path_44" data-name="Path 44" d="M71.1,311.216l-1.264-.339a.436.436,0,0,0-.225.842l1.264.338a.414.414,0,0,0,.113.015.436.436,0,0,0,.113-.857Zm0,0" transform="translate(-65.754 -294.989)" fill="#fff"/>
  <path id="Path_45" data-name="Path 45" d="M153.48,333.287l-9.683-2.595a.436.436,0,1,0-.226.842l9.683,2.595a.427.427,0,0,0,.113.015.436.436,0,0,0,.112-.857Zm0,0" transform="translate(-135.921 -313.788)" fill="#fff"/>
</svg>
