<svg width="18" height="18" viewBox="0 0 18 18" fill="none" xmlns="http://www.w3.org/2000/svg">
<path d="M16.4468 15.1822L15.1582 13.0357C14.5642 12.045 14.25 10.911 14.25 9.75525V7.87499C14.25 4.98075 11.8942 2.625 8.99999 2.625C6.10575 2.625 3.75 4.98075 3.75 7.87499V9.75525C3.75 10.911 3.43574 12.045 2.84174 13.0357L1.55323 15.1822C1.48348 15.2977 1.48197 15.4425 1.54799 15.5595C1.61475 15.6772 1.73998 15.75 1.87498 15.75H16.125C16.26 15.75 16.3852 15.6773 16.452 15.5595C16.518 15.4425 16.5165 15.2977 16.4468 15.1822ZM2.53725 15L3.4845 13.4212C4.14899 12.3142 4.49999 11.0467 4.49999 9.75525V7.87499C4.49999 5.39324 6.51824 3.37499 8.99999 3.37499C11.4817 3.37499 13.5 5.39324 13.5 7.87499V9.75525C13.5 11.0467 13.851 12.3142 14.5147 13.4212L15.4627 15H2.53725Z" fill="url(#paint0_linear)"/>
<path d="M9.00001 0C8.17275 0 7.5 0.67275 7.5 1.50001V3.00002C7.5 3.20699 7.66801 3.375 7.87501 3.375C8.08201 3.375 8.25002 3.20699 8.25002 2.99999V1.50001C8.25002 1.08601 8.58601 0.750023 9.00001 0.750023C9.41401 0.750023 9.75 1.08601 9.75 1.50001V3.00002C9.75 3.20699 9.91801 3.375 10.125 3.375C10.332 3.375 10.5 3.20699 10.5 2.99999V1.50001C10.5 0.67275 9.82727 0 9.00001 0Z" fill="url(#paint1_linear)"/>
<path d="M10.623 15.1848C10.5172 15.0063 10.2885 14.9478 10.1092 15.0505C9.92998 15.1555 9.87 15.3858 9.97498 15.5643C10.0725 15.73 10.1257 15.9288 10.1257 16.1245C10.1257 16.7448 9.62099 17.2495 9.00073 17.2495C8.38047 17.2495 7.87573 16.7448 7.87573 16.1245C7.87573 15.9288 7.92899 15.73 8.02648 15.5643C8.13072 15.385 8.07074 15.1555 7.89222 15.0505C7.71148 14.9478 7.48346 15.0063 7.37848 15.1848C7.21272 15.4683 7.12497 15.793 7.12497 16.1246C7.125 17.1588 7.96573 17.9995 8.99999 17.9995C10.0343 17.9995 10.875 17.1588 10.8765 16.1246C10.8765 15.793 10.7887 15.4683 10.623 15.1848Z" fill="url(#paint2_linear)"/>
<defs>
<linearGradient id="paint0_linear" x1="8.99998" y1="2.625" x2="8.99998" y2="15.75" gradientUnits="userSpaceOnUse">
<stop stop-color="#4E54C8"/>
<stop offset="1" stop-color="#E25BC8"/>
</linearGradient>
<linearGradient id="paint1_linear" x1="9.00001" y1="0" x2="9.00001" y2="3.375" gradientUnits="userSpaceOnUse">
<stop stop-color="#4E54C8"/>
<stop offset="1" stop-color="#E25BC8"/>
</linearGradient>
<linearGradient id="paint2_linear" x1="9.00073" y1="15" x2="9.00073" y2="17.9995" gradientUnits="userSpaceOnUse">
<stop stop-color="#4E54C8"/>
<stop offset="1" stop-color="#E25BC8"/>
</linearGradient>
</defs>
</svg>
