<svg xmlns="http://www.w3.org/2000/svg" width="26" height="32" viewBox="0 0 26 32">
  <defs>
    <linearGradient id="notification-a" x1="16.992%" x2="83.008%" y1="15.097%" y2="100%">
      <stop offset="0%" stop-color="#F28B9D"/>
      <stop offset="45.228%" stop-color="#EB5F6D"/>
      <stop offset="100%" stop-color="#EF7562"/>
    </linearGradient>
    <linearGradient id="notification-b" x1="0%" x2="100%" y1="15.097%" y2="100%">
      <stop offset="0%" stop-color="#F28B9D"/>
      <stop offset="45.228%" stop-color="#EB5F6D"/>
      <stop offset="100%" stop-color="#EF7562"/>
    </linearGradient>
    <linearGradient id="notification-c" x1="0%" x2="100%" y1="30.367%" y2="78.125%">
      <stop offset="0%" stop-color="#F28B9D"/>
      <stop offset="45.228%" stop-color="#EB5F6D"/>
      <stop offset="100%" stop-color="#EF7562"/>
    </linearGradient>
  </defs>
  <g fill="none">
    <path fill="url(#notification-a)" d="M25.0180137,23.6282961 C24.3218774,23.0097949 23.9225878,22.1328557 23.9225878,21.2223539 L23.9225878,11.9999668 C23.9225878,11.6548411 23.6346799,11.3749656 23.2795057,11.3749656 C22.9243315,11.3749656 22.6364237,11.6548411 22.6364237,11.9999668 L22.6364237,21.2223539 C22.6364237,22.4829814 23.1881881,23.6961713 24.1502388,24.550923 C24.496024,24.8581111 24.6942862,25.2951744 24.6942862,25.7501753 C24.6942862,26.6461145 23.9442596,27.3750535 23.0224015,27.3750535 L2.95804879,27.3750535 C2.03619068,27.3750535 1.28616409,26.6461145 1.28616409,25.7501753 C1.28616409,25.2952369 1.48442628,24.8581736 1.8302115,24.550923 C2.79226224,23.6961713 3.34402663,22.4829814 3.34402663,21.2223539 L3.34402663,13.9999648 C3.34402663,8.83057975 7.67132571,4.62494653 12.9902573,4.62494653 C14.4531403,4.62494653 15.89403,4.94825966 17.1989721,5.56319837 C16.7454063,6.27132475 16.4823857,7.10620138 16.4823857,7.99995312 C16.4823857,10.5502081 18.6171609,12.6249622 21.2411929,12.6249622 C23.8652248,12.6249622 26,10.5502081 26,7.99995312 C26,5.44969814 23.8652248,3.37494409 21.2411929,3.37494409 C20.0114271,3.37494409 18.889056,3.83069498 18.043596,4.57750894 C17.0850179,4.09157049 16.0566654,3.74794482 14.994744,3.55600695 C15.2316555,3.19663124 15.3696609,2.77000541 15.3696609,2.31244202 C15.3696609,1.03737703 14.3022733,0 12.9902573,0 C11.6782413,0 10.6108537,1.03737703 10.6108537,2.31244202 C10.6108537,2.76950541 10.7485376,3.19563124 10.9849346,3.55481944 C5.91127446,4.47263374 2.05786254,8.8068922 2.05786254,13.9999648 L2.05786254,21.2223539 C2.05786254,22.1328557 1.65863721,23.0097949 0.962436588,23.6282961 C0.350801255,24.1716722 0,24.9450487 0,25.7501128 C0,27.3353034 1.3269998,28.6249934 2.95804879,28.6249934 L8.92507847,28.6249934 C9.23478678,30.5347471 10.9395973,32 12.9902573,32 C15.0409173,32 16.7457278,30.5347471 17.0554361,28.6249934 L23.0224658,28.6249934 C24.6535148,28.6249934 25.9805146,27.3353034 25.9805146,25.7501128 C25.9805146,24.9450487 25.6297134,24.1716722 25.0180137,23.6282961 Z M21.2411286,4.62494653 C23.1559697,4.62494653 24.7137716,6.13901199 24.7137716,7.99995312 C24.7137716,9.86089426 23.1559697,11.3749597 21.2411286,11.3749597 C19.3262875,11.3749597 17.7684855,9.86089426 17.7684855,7.99995312 C17.7684855,6.13901199 19.3262875,4.62494653 21.2411286,4.62494653 Z M12.9902573,1.24993994 C13.5930824,1.24993994 14.0834968,1.72656587 14.0834968,2.31237952 C14.0834968,2.89825566 13.5930824,3.37488159 12.9902573,3.37488159 C12.3874322,3.37488159 11.8970178,2.89825566 11.8970178,2.31237952 C11.8970178,1.72656587 12.3874322,1.24993994 12.9902573,1.24993994 Z M12.9902573,30.7499976 C11.6512962,30.7499976 10.5273817,29.8411208 10.2352938,28.6249934 L15.7452208,28.6249934 C15.4531329,29.8411208 14.3292184,30.7499976 12.9902573,30.7499976 Z"/>
    <path fill="url(#notification-b)" d="M5.5,14 C5.22385,14 5,14.2215954 5,14.4948535 L5,14.5051465 C5,14.7784046 5.22385,15 5.5,15 C5.77615,15 6,14.7784046 6,14.5051465 L6,14.4948535 C6,14.2215954 5.77615,14 5.5,14 Z"/>
    <path fill="url(#notification-c)" d="M13.3503517,6 C10.1624626,6 7.29757859,7.98395867 6.05181303,11.0545133 C5.91161893,11.4000136 6.0657155,11.7990756 6.39593173,11.9457586 C6.47876189,11.9825313 6.56484029,12 6.64948946,12 C6.90233257,12 7.1427674,11.8445487 7.24781553,11.5857123 C8.2894616,9.01835237 10.6848448,7.35943448 13.3503517,7.35943448 C13.7091525,7.35943448 14,7.0550571 14,6.67971724 C14,6.30437738 13.7091525,6 13.3503517,6 Z"/>
  </g>
</svg>
