<svg id="Page-1" xmlns="http://www.w3.org/2000/svg" width="26.591" height="26.591" viewBox="0 0 26.591 26.591">
  <g id="_001---Thinking" data-name="001---Thinking" transform="translate(0 0)">
    <path id="Shape" d="M1.651,17.57a3.249,3.249,0,0,0,.46.266c.192.1.513.262.535.377a.765.765,0,0,1-.052.448c-.066.142-.136.264-.195.369-.163.286-.434.766-.024,1.1.1.089.261.217.412.332a1.117,1.117,0,0,0-.144.639.64.64,0,0,0,.26.434c.1.071.207.133.31.193.261.148.363.218.4.355a1.224,1.224,0,0,1-.049.537c-.026.115-.051.23-.068.348a2.6,2.6,0,0,0,.15,1.194,1.661,1.661,0,0,0,1.57,1.21,1.8,1.8,0,0,0,.362-.038,33.6,33.6,0,0,0,3.736-1.118c1,.586,1.629,2.367,1.794,3.036a.443.443,0,0,0,.43.336l11.124-.031a.443.443,0,0,0,.422-.576,3.423,3.423,0,0,0-.449-.842,4.111,4.111,0,0,1-.287-.479,8.437,8.437,0,0,1-.5-1.262,14.937,14.937,0,0,1-.524-2.622,7.5,7.5,0,0,1,.582-3.892,9.907,9.907,0,0,1,1.2-1.9c.266-.359.542-.731.79-1.121a6.854,6.854,0,0,0,.913-2.158.443.443,0,0,0-.863-.2,5.983,5.983,0,0,1-.8,1.883c-.23.364-.5.722-.753,1.068a10.709,10.709,0,0,0-1.3,2.076,8.384,8.384,0,0,0-.65,4.352A15.731,15.731,0,0,0,21,24.665a9.238,9.238,0,0,0,.55,1.388,4.843,4.843,0,0,0,.343.576l.03.044-10.052.03a7.067,7.067,0,0,0-1.56-2.83l.4-.139c.3-.1.523-.183.639-.222,1.9-.6,2.847-1.469,2.821-2.57a.435.435,0,0,0-.452-.43.443.443,0,0,0-.433.453c.011.453-.363,1.117-2.205,1.7-.121.039-.355.12-.661.227-.329.115-.747.261-1.208.417h0A34.518,34.518,0,0,1,5.4,24.467a.789.789,0,0,1-.913-.59,1.773,1.773,0,0,1-.109-.785c.013-.089.034-.182.054-.272a1.934,1.934,0,0,0,.044-.954,1.469,1.469,0,0,0-.818-.9l-.1-.055a1.631,1.631,0,0,1,.171-.275A.443.443,0,0,0,3.648,20c-.106-.078-.355-.266-.541-.414.021-.039.044-.081.067-.119.07-.122.149-.266.226-.429a1.654,1.654,0,0,0,.118-.991c-.106-.541-.624-.806-1-1a2.561,2.561,0,0,1-.365-.212,1.889,1.889,0,0,1-.266-.215c0-.067.072-.23.409-.641a17.881,17.881,0,0,0,2.028-3.295,1.317,1.317,0,0,0,.171-.6,1.551,1.551,0,0,0-.65-1.108c-.179-.165-.349-.32-.368-.451a.871.871,0,0,1,.072-.315c.072-.19.156-.376.239-.562a6.5,6.5,0,0,0,.443-1.2,11.886,11.886,0,0,1,.4-1.466,7.6,7.6,0,0,1,1.59-2.6A7.3,7.3,0,0,1,10.19,2.5a28.8,28.8,0,0,1,4.158-.6,9.7,9.7,0,0,1,1.412.03.444.444,0,1,0,.082-.885,10.78,10.78,0,0,0-1.54-.031,29.581,29.581,0,0,0-4.286.615A8.057,8.057,0,0,0,5.574,3.775,8.476,8.476,0,0,0,3.8,6.675a12.956,12.956,0,0,0-.437,1.6,5.74,5.74,0,0,1-.38,1.01c-.089.2-.18.4-.26.613a1.548,1.548,0,0,0-.121.744,1.7,1.7,0,0,0,.648.987c.217.2.36.339.362.461a.751.751,0,0,1-.075.192,17.106,17.106,0,0,1-1.939,3.151,1.844,1.844,0,0,0-.587,1.3A1.358,1.358,0,0,0,1.651,17.57Z" transform="translate(-0.998 -0.999)"/>
    <path id="Shape-2" data-name="Shape" d="M11.436,10.56a5.838,5.838,0,0,1,1.216-1.994A5.668,5.668,0,0,1,15.688,7.2a.443.443,0,0,0-.172-.87,6.5,6.5,0,0,0-3.508,1.628,6.719,6.719,0,0,0-1.4,2.3,11.277,11.277,0,0,0-.364,1.352l.866.192A10.6,10.6,0,0,1,11.436,10.56Z" transform="translate(-6.144 -3.961)"/>
    <path id="Shape-3" data-name="Shape" d="M26.7,3.482l-.266,1.326a5.279,5.279,0,0,0-.746.31l-1.125-.753a.886.886,0,0,0-1.113.116l-.736.735A.886.886,0,0,0,22.6,6.339l.75,1.12a5.277,5.277,0,0,0-.31.746l-1.324.266a.886.886,0,0,0-.711.87v1.046a.886.886,0,0,0,.709.869l1.326.266a5.277,5.277,0,0,0,.31.746l-.753,1.125a.886.886,0,0,0,.116,1.113l.736.736a.889.889,0,0,0,1.123.117l1.12-.75a5.277,5.277,0,0,0,.746.31l.266,1.324a.886.886,0,0,0,.87.711h1.046a.886.886,0,0,0,.869-.709l.266-1.326a5.277,5.277,0,0,0,.746-.31l1.125.753a.886.886,0,0,0,1.113-.116l.735-.735a.886.886,0,0,0,.117-1.123l-.75-1.12a5.277,5.277,0,0,0,.31-.746l1.324-.266a.883.883,0,0,0,.61-.462l.668.448a.809.809,0,0,0,.43.125.8.8,0,0,0,.566-.235l.589-.589a.8.8,0,0,0,.1-1.008l-.572-.855a4.168,4.168,0,0,0,.214-.515l1-.2a.8.8,0,0,0,.644-.786V6.345a.8.8,0,0,0-.64-.785l-1.007-.2a4.1,4.1,0,0,0-.214-.515l.581-.866a.8.8,0,0,0-.111-1l-.589-.589a.8.8,0,0,0-1.008-.1l-.855.572a4.166,4.166,0,0,0-.515-.214l-.2-1A.8.8,0,0,0,33.382,1h-.833a.8.8,0,0,0-.785.64l-.2,1.007a4.1,4.1,0,0,0-.515.215l-.866-.581a.8.8,0,0,0-1,.111l-.4.4a.908.908,0,0,0-.174-.019H27.568A.886.886,0,0,0,26.7,3.482Zm6.775,1.737-.207-.207a1.763,1.763,0,0,1,.551,3.327l-.673-.133a5.277,5.277,0,0,0-.31-.746l.753-1.125a.886.886,0,0,0-.114-1.114ZM29.765,3.067l1.013.681a.443.443,0,0,0,.473.013,3.242,3.242,0,0,1,.811-.339.443.443,0,0,0,.319-.341l.238-1.194h.693l.238,1.2a.443.443,0,0,0,.319.341,3.241,3.241,0,0,1,.811.339.443.443,0,0,0,.473-.016l1.013-.68.492.492-.679,1.014a.443.443,0,0,0-.013.473,3.241,3.241,0,0,1,.339.811.443.443,0,0,0,.341.319l1.2.238v.693l-1.194.238a.443.443,0,0,0-.341.319,3.241,3.241,0,0,1-.339.811.443.443,0,0,0,.013.473l.68,1.013-.492.492-.988-.661V9.341a.889.889,0,0,0-.31-.675A2.653,2.653,0,0,0,33.023,4.1a2.565,2.565,0,0,0-.788.129.9.9,0,0,0-.62.136l-1.119.75a5.279,5.279,0,0,0-.746-.31l-.266-1.324a.81.81,0,0,0-.031-.1ZM27.249,5.244l.319-1.585h1.046l.319,1.587a.443.443,0,0,0,.319.34A4.366,4.366,0,0,1,30.3,6.02a.443.443,0,0,0,.469-.015l1.341-.9.743.739-.9,1.342a.443.443,0,0,0-.015.469A4.366,4.366,0,0,1,32.37,8.7a.443.443,0,0,0,.34.319L34.3,9.34v1.046l-1.587.319a.443.443,0,0,0-.34.319,4.366,4.366,0,0,1-.434,1.046.443.443,0,0,0,.015.469l.9,1.341-.739.743-1.342-.9a.443.443,0,0,0-.469-.015,4.366,4.366,0,0,1-1.046.434.443.443,0,0,0-.319.34l-.317,1.585H27.568l-.319-1.587a.443.443,0,0,0-.319-.34,4.366,4.366,0,0,1-1.046-.434.443.443,0,0,0-.469.015l-1.341.9-.743-.739.9-1.342a.443.443,0,0,0,.015-.469,4.366,4.366,0,0,1-.434-1.046.443.443,0,0,0-.34-.319l-1.585-.317V9.341l1.587-.319a.443.443,0,0,0,.34-.319,4.366,4.366,0,0,1,.434-1.046.443.443,0,0,0-.015-.469l-.9-1.341.739-.743,1.342.9a.443.443,0,0,0,.469.015,4.366,4.366,0,0,1,1.046-.434A.443.443,0,0,0,27.249,5.244Z" transform="translate(-12.136 -0.999)"/>
    <path id="Shape-4" data-name="Shape" d="M33.1,20.2A3.1,3.1,0,1,0,30,17.1,3.1,3.1,0,0,0,33.1,20.2Zm0-5.318A2.216,2.216,0,1,1,30.886,17.1,2.216,2.216,0,0,1,33.1,14.886Z" transform="translate(-17.147 -8.238)"/>
    <circle id="Oval" cx="0.5" cy="0.5" r="0.5" transform="translate(14.948 7.974)"/>
    <circle id="Oval-2" data-name="Oval" cx="0.5" cy="0.5" r="0.5" transform="translate(3.948 8.974)"/>
  </g>
</svg>
