<svg xmlns="http://www.w3.org/2000/svg" width="36.645" height="28.296" viewBox="0 0 36.645 28.296">
  <defs>
    <style>
      .cls-1 {
        fill: #fff;
      }
    </style>
  </defs>
  <g id="paper-plane" transform="translate(0 -58.324)">
    <path id="Path_1" data-name="Path 1" class="cls-1" d="M36,58.336,21.072,61.395a.537.537,0,0,0,.216,1.052l10.234-2.1L6.389,71.733l-4.635-2.8A1.4,1.4,0,0,1,2.2,66.359l17.07-3.5a.537.537,0,0,0-.216-1.052l-17.071,3.5A2.477,2.477,0,0,0,1.2,69.856l4.668,2.816,2.421,13.5a.542.542,0,0,0,.3.389h0a.523.523,0,0,0,.489-.012l10.414-5.664,4.724,2.85a2.478,2.478,0,0,0,3.6-1.251l8.8-23.438a.537.537,0,0,0-.61-.714ZM13.043,77l5.38,3.246L9.872,84.9Zm13.763,5.11a1.4,1.4,0,0,1-2.04.709L13.742,76.169l3.483-2.591a.537.537,0,1,0-.641-.861L12.46,75.785a.539.539,0,0,0-.178.231L9.016,84.148,6.955,72.654,31.783,61.409,18.289,71.448a.537.537,0,1,0,.641.861L34.963,60.381Z" transform="translate(0 0)"/>
  </g>
</svg>
