<svg width="24" height="17" viewBox="0 0 24 17" fill="none" xmlns="http://www.w3.org/2000/svg">
<path d="M23.5814 0.00444729L13.8028 1.84247C13.7126 1.86066 13.6338 1.91066 13.5835 1.98169C13.5332 2.05271 13.5153 2.13904 13.5338 2.22204C13.5523 2.30503 13.6056 2.37802 13.6823 2.42523C13.759 2.47244 13.8528 2.49009 13.9436 2.47435L20.6477 1.21423L4.18172 8.05481L1.14545 6.37659C0.98719 6.28875 0.861455 6.1592 0.784645 6.00484C0.707835 5.85048 0.683516 5.67847 0.714859 5.51125C0.746202 5.34402 0.831753 5.18934 0.960354 5.06738C1.08895 4.94541 1.25464 4.86182 1.4358 4.82751L12.6215 2.72317C12.7117 2.70498 12.7905 2.65497 12.8408 2.58395C12.8912 2.51293 12.909 2.42659 12.8905 2.3436C12.872 2.2606 12.8187 2.18762 12.742 2.14041C12.6653 2.09319 12.5715 2.07555 12.4807 2.09128L1.29818 4.19343C0.978078 4.25337 0.685151 4.40055 0.457727 4.6157C0.230302 4.83085 0.0789714 5.10396 0.0235339 5.39929C-0.0319036 5.69463 0.011134 5.99844 0.147016 6.27097C0.282897 6.5435 0.505295 6.77206 0.785111 6.92675L3.84285 8.61884L5.429 16.7341C5.4392 16.7843 5.46207 16.8315 5.49578 16.8721C5.52949 16.9126 5.57309 16.9453 5.62309 16.9676C5.67282 16.9901 5.72774 17.0012 5.78316 16.9999C5.83858 16.9986 5.89283 16.9851 5.94127 16.9603L12.7631 13.5565L15.8575 15.269C16.0614 15.3819 16.29 15.4522 16.527 15.475C16.764 15.4977 17.0035 15.4723 17.2285 15.4006C17.4536 15.3288 17.6587 15.2125 17.8292 15.0599C17.9997 14.9073 18.1315 14.722 18.2152 14.5174L23.9783 0.434948C23.9999 0.381171 24.0055 0.323096 23.9946 0.266672C23.9836 0.210249 23.9565 0.157506 23.9161 0.113848C23.8756 0.0701896 23.8232 0.0371841 23.7642 0.018217C23.7053 -0.000750164 23.6419 -0.0049988 23.5806 0.00590581L23.5814 0.00444729ZM8.54322 11.2164L12.0671 13.1668L6.46627 15.9651L8.54322 11.2164ZM17.5589 14.2868C17.5116 14.4029 17.4369 14.5079 17.3402 14.5944C17.2436 14.681 17.1274 14.7469 16.9998 14.7876C16.8722 14.8283 16.7364 14.8427 16.6021 14.8298C16.4678 14.8169 16.3382 14.777 16.2226 14.713L9.0014 10.7203L11.2828 9.16317C11.3576 9.11208 11.4072 9.03582 11.4207 8.95119C11.4342 8.86656 11.4105 8.78047 11.3548 8.71187C11.2991 8.64327 11.2159 8.59777 11.1237 8.58539C11.0314 8.573 10.9376 8.59475 10.8628 8.64584L8.15821 10.4897C8.10638 10.5253 8.06621 10.5732 8.04208 10.6283L5.90229 15.5171L4.55002 8.61081L20.814 1.85341L11.9796 7.88334C11.9048 7.93443 11.8552 8.01068 11.8417 8.09531C11.8282 8.17994 11.8519 8.26603 11.9076 8.33464C11.9633 8.40324 12.0464 8.44873 12.1387 8.46112C12.231 8.4735 12.3248 8.45176 12.3996 8.40067L22.8996 1.2332L17.5589 14.2868Z" fill="black"/>
</svg>
