<svg xmlns="http://www.w3.org/2000/svg" width="39" height="39" viewBox="0 0 39 39"><defs><clipPath id="5m58a"><path fill="#fff" d="M0 19.5C0 8.73 8.73 0 19.5 0S39 8.73 39 19.5 30.27 39 19.5 39 0 30.27 0 19.5z"/></clipPath></defs><g><g><path fill="#fff" d="M0 19.5C0 8.73 8.73 0 19.5 0S39 8.73 39 19.5 30.27 39 19.5 39 0 30.27 0 19.5z"/><path fill="none" stroke="#707070" stroke-miterlimit="20" stroke-width="2" d="M0 19.5C0 8.73 8.73 0 19.5 0S39 8.73 39 19.5 30.27 39 19.5 39 0 30.27 0 19.5z" clip-path="url(&quot;#5m58a&quot;)"/></g><g><g><path d="M22.71 25.843a.287.287 0 0 1-.203-.083L16.2 19.452a.287.287 0 0 1 0-.405l6.307-6.308a.287.287 0 1 1 .405.406l-6.104 6.104 6.105 6.105a.287.287 0 0 1-.203.49z"/></g><g><path d="M22.71 25.843a.287.287 0 0 1-.203-.083L16.2 19.452a.287.287 0 0 1 0-.405l6.307-6.308a.287.287 0 1 1 .405.406l-6.104 6.104 6.105 6.105a.287.287 0 0 1-.203.49z"/></g></g></g></svg>