<svg xmlns="http://www.w3.org/2000/svg" width="50.638" height="53.368" viewBox="0 0 50.638 53.368">
  <g id="question" transform="translate(-13.098)">
    <g id="Group_18" data-name="Group 18" transform="translate(44.181 20.494)">
      <g id="Group_17" data-name="Group 17">
        <path id="Path_59" data-name="Path 59" d="M325.553,196.614H312.131a.829.829,0,1,0,0,1.659h13.422a.829.829,0,1,0,0-1.659Z" transform="translate(-311.302 -196.614)"/>
      </g>
    </g>
    <g id="Group_20" data-name="Group 20" transform="translate(44.181 24.09)">
      <g id="Group_19" data-name="Group 19">
        <path id="Path_60" data-name="Path 60" d="M325.553,231.11H312.131a.83.83,0,0,0,0,1.659h13.422a.83.83,0,1,0,0-1.659Z" transform="translate(-311.302 -231.11)"/>
      </g>
    </g>
    <g id="Group_22" data-name="Group 22" transform="translate(44.181 31.281)">
      <g id="Group_21" data-name="Group 21">
        <path id="Path_61" data-name="Path 61" d="M325.553,300.1H312.131a.829.829,0,0,0,0,1.659h13.422a.829.829,0,1,0,0-1.659Z" transform="translate(-311.302 -300.1)"/>
      </g>
    </g>
    <g id="Group_24" data-name="Group 24" transform="translate(44.181 38.472)">
      <g id="Group_23" data-name="Group 23">
        <path id="Path_62" data-name="Path 62" d="M325.553,369.091H312.131a.829.829,0,1,0,0,1.659h13.422a.829.829,0,1,0,0-1.659Z" transform="translate(-311.302 -369.091)"/>
      </g>
    </g>
    <g id="Group_26" data-name="Group 26" transform="translate(44.181 27.685)">
      <g id="Group_25" data-name="Group 25">
        <path id="Path_63" data-name="Path 63" d="M325.553,265.605H312.131a.829.829,0,1,0,0,1.659h13.422a.829.829,0,1,0,0-1.659Z" transform="translate(-311.302 -265.605)"/>
      </g>
    </g>
    <g id="Group_28" data-name="Group 28" transform="translate(44.181 34.877)">
      <g id="Group_27" data-name="Group 27">
        <path id="Path_64" data-name="Path 64" d="M325.553,334.6H312.131a.829.829,0,1,0,0,1.659h13.422a.829.829,0,1,0,0-1.659Z" transform="translate(-311.302 -334.596)"/>
      </g>
    </g>
    <g id="Group_30" data-name="Group 30" transform="translate(13.716 14.103)">
      <g id="Group_29" data-name="Group 29">
        <path id="Path_65" data-name="Path 65" d="M65.747,135.3H49.271a6.121,6.121,0,0,0-1.067.094,6.047,6.047,0,0,0-4.17,2.906c-.065-.111-.133-.22-.205-.327a.83.83,0,0,0-1.375.929,4.382,4.382,0,0,1,.752,2.463v30.124A6.037,6.037,0,0,0,38.8,169.6H22.324a1.64,1.64,0,0,1-1.639-1.638V138.6a1.641,1.641,0,0,1,1.639-1.639H32.35a.829.829,0,1,0,0-1.659H22.324a3.3,3.3,0,0,0-3.3,3.3v32.669a3.3,3.3,0,0,0,3.3,3.3H65.747a3.3,3.3,0,0,0,3.3-3.3V138.6A3.3,3.3,0,0,0,65.747,135.3ZM22.324,172.9a1.641,1.641,0,0,1-1.639-1.639v-.447a3.277,3.277,0,0,0,1.639.438H38.8a4.383,4.383,0,0,1,3.44,1.648Zm34.248-1.648h9.175a3.277,3.277,0,0,0,1.639-.438v.447a1.641,1.641,0,0,1-1.639,1.639H45.84a4.426,4.426,0,0,1,2.658-1.58,4.345,4.345,0,0,1,.773-.068h4.536a.829.829,0,1,0,0-1.659H49.271a6.006,6.006,0,0,0-1.066.095,6.082,6.082,0,0,0-3.339,1.808V141.363q0-.2.017-.389s0-.009,0-.014a4.4,4.4,0,0,1,3.61-3.934,4.467,4.467,0,0,1,.777-.068H65.747a1.641,1.641,0,0,1,1.639,1.639v29.363h0a1.64,1.64,0,0,1-1.639,1.638H56.572a.83.83,0,1,0,0,1.659Z" transform="translate(-19.026 -135.298)"/>
      </g>
    </g>
    <g id="Group_32" data-name="Group 32" transform="translate(19.369 34.131)">
      <g id="Group_31" data-name="Group 31">
        <path id="Path_66" data-name="Path 66" d="M78.05,327.44a4.853,4.853,0,0,0,0,9.7,4.852,4.852,0,0,0,0-9.7Zm0,8.045a3.194,3.194,0,0,1,0-6.386,3.193,3.193,0,0,1,0,6.386Z" transform="translate(-73.257 -327.44)"/>
      </g>
    </g>
    <g id="Group_34" data-name="Group 34" transform="translate(13.098)">
      <g id="Group_33" data-name="Group 33">
        <path id="Path_67" data-name="Path 67" d="M35.783,4.664a.83.83,0,0,0-1.318,1.008,8.394,8.394,0,0,1,1.7,5.155c0,5.054-3.908,8.5-6.008,10.352-.263.232-.492.434-.689.617-3.241,2.657-3.242,5.081-3.242,8.434,0,.454,0,1.3-2.128,1.3-1.344,0-1.892-.225-1.892-2.483,0-5.116,1.654-7.283,3.272-8.728L25.5,20.3c.391-.369.855-.751,1.347-1.156,2.1-1.728,4.711-3.879,4.711-7.493,0-3.65-2.653-5.917-6.923-5.917-3.844,0-5.17,1.69-6.138,2.924-.63.8-.937,1.158-1.611,1.158a2.007,2.007,0,0,1-2.128-2.01c0-2.514,3.581-6.151,10.055-6.151a13.042,13.042,0,0,1,8,2.372.83.83,0,1,0,1.007-1.318A14.674,14.674,0,0,0,24.812,0C17.169,0,13.1,4.536,13.1,7.81a3.656,3.656,0,0,0,3.787,3.669A3.571,3.571,0,0,0,19.8,9.686C20.685,8.561,21.6,7.4,24.635,7.4c4.751,0,5.264,2.978,5.264,4.258,0,2.832-2.182,4.628-4.107,6.212-.51.42-.993.817-1.422,1.221-1.78,1.591-3.818,4.163-3.818,9.958,0,2.9,1.062,4.142,3.551,4.142,3.3,0,3.787-1.854,3.787-2.959,0-3.467.107-5.088,2.653-7.166l.041-.036c.185-.173.412-.373.675-.6,2.132-1.88,6.57-5.794,6.57-11.6A10.04,10.04,0,0,0,35.783,4.664Z" transform="translate(-13.098)"/>
      </g>
    </g>
  </g>
</svg>
