<svg id="save" xmlns="http://www.w3.org/2000/svg" width="32" height="32" viewBox="0 0 32 32">
  <defs>
    <style>
      .cls-1 {
        fill: #fff;
      }
    </style>
  </defs>
  <path id="Path_34" data-name="Path 34" class="cls-1" d="M31.2,9.456,22.543.8a2.712,2.712,0,0,0-1.93-.8H2.177A2.18,2.18,0,0,0,0,2.177V29.823A2.18,2.18,0,0,0,2.177,32H29.823A2.18,2.18,0,0,0,32,29.823V11.387A2.712,2.712,0,0,0,31.2,9.456ZM4.907,1.037H19.352V8.259a1.7,1.7,0,0,1-1.693,1.693H6.6A1.7,1.7,0,0,1,4.907,8.259ZM27.093,30.963H4.907V19.317A1.7,1.7,0,0,1,6.6,17.624H25.4a1.7,1.7,0,0,1,1.693,1.693Zm3.87-1.14a1.142,1.142,0,0,1-1.14,1.14H28.13V19.317a2.733,2.733,0,0,0-2.73-2.73H6.6a2.733,2.733,0,0,0-2.73,2.73V30.963H2.177a1.142,1.142,0,0,1-1.14-1.14V2.177a1.142,1.142,0,0,1,1.14-1.14H3.87V8.259a2.733,2.733,0,0,0,2.73,2.73H17.659a2.733,2.733,0,0,0,2.73-2.73V1.037h.224a1.682,1.682,0,0,1,1.2.5l8.657,8.657a1.683,1.683,0,0,1,.5,1.2Z"/>
  <path id="Path_35" data-name="Path 35" class="cls-1" d="M200.518,38.566h3.318a.518.518,0,0,0,.518-.518V32.518a.518.518,0,0,0-.518-.518h-3.318a.518.518,0,0,0-.518.518v5.529A.518.518,0,0,0,200.518,38.566Zm.518-5.529h2.281v4.492h-2.281Z" transform="translate(-186.177 -29.788)"/>
  <path id="Path_36" data-name="Path 36" class="cls-1" d="M202.472,312h-9.952a.518.518,0,1,0,0,1.037h9.952a.518.518,0,1,0,0-1.037Z" transform="translate(-178.731 -290.436)"/>
  <path id="Path_37" data-name="Path 37" class="cls-1" d="M112.518,313.037h3.318a.518.518,0,1,0,0-1.037h-3.318a.518.518,0,1,0,0,1.037Z" transform="translate(-104.259 -290.436)"/>
  <path id="Path_38" data-name="Path 38" class="cls-1" d="M128,376H112.518a.518.518,0,0,0,0,1.037H128A.518.518,0,0,0,128,376Z" transform="translate(-104.259 -350.013)"/>
</svg>
