<svg width="25" height="23" viewBox="0 0 25 23" fill="none" xmlns="http://www.w3.org/2000/svg">
<path d="M12.5 0C5.60722 0 0 5.15865 0 11.5C0 17.8414 5.60722 23 12.5 23C19.3928 23 25 17.8414 25 11.5C25 5.15865 19.3928 0 12.5 0Z" fill="#4E54C8"/>
<path d="M18.8354 9.06387L12.0645 15.2929C11.8614 15.4798 11.5947 15.5739 11.3281 15.5739C11.0614 15.5739 10.7948 15.4798 10.5917 15.2929L7.20631 12.1784C6.7989 11.8038 6.7989 11.198 7.20631 10.8234C7.61353 10.4486 8.27176 10.4486 8.67917 10.8234L11.3281 13.2604L17.3626 7.70885C17.7698 7.33403 18.428 7.33403 18.8354 7.70885C19.2426 8.08349 19.2426 8.68906 18.8354 9.06387Z" fill="#FAFAFA"/>
</svg>
