<svg xmlns="http://www.w3.org/2000/svg" width="32" height="28" viewBox="0 0 32 28"><g><g><path d="M29.374 14.967L4.045 25.477a1.17 1.17 0 0 1-1.237-.2 1.17 1.17 0 0 1-.375-1.195l2.37-9.296h9.14a.92.92 0 1 0 0-1.84h-9.14l-2.37-9.295a1.17 1.17 0 0 1 .375-1.195 1.17 1.17 0 0 1 1.237-.2l25.329 10.51c.682.283.735.914.735 1.1 0 .187-.053.818-.735 1.101zm.705-3.9L4.75.557a3.015 3.015 0 0 0-3.146.508 3.015 3.015 0 0 0-.953 3.04l2.489 9.761-2.489 9.761a3.015 3.015 0 0 0 .953 3.041c.875.758 2.081.95 3.146.508l25.329-10.51a2.985 2.985 0 0 0 1.87-2.8 2.985 2.985 0 0 0-1.87-2.8z"/></g></g></svg>