<svg xmlns="http://www.w3.org/2000/svg" width="39" height="35" viewBox="0 0 39 35"><g><g><g><path d="M29.875 17.538v-3.425a.856.856 0 0 0-.72-.844c-.732-.118-2.684-.306-4.991.503-2.461.862-4.59 2.559-6.344 5.052-.005-.82.072-1.637.231-2.44.52-2.63 1.841-4.839 3.926-6.564a.777.777 0 0 0 .052-.048c.06-.055 2.233-2.017 6.983-1.981h.006a.857.857 0 0 0 .857-.856V3.586l6.976 6.941zM29.622.921a.856.856 0 0 0-1.459.607v4.565c-4.621.184-6.935 2.1-7.289 2.418a12.97 12.97 0 0 0-4.502 7.54c-.289 1.43-.34 2.898-.152 4.345v.005l.006.038.182 1.045a.856.856 0 0 0 1.576.294l.545-.908c1.674-2.784 3.76-4.628 6.2-5.484 1.102-.39 2.268-.56 3.434-.503v4.729a.856.856 0 0 0 1.462.603l9.042-9.088a.856.856 0 0 0-.003-1.21z"/></g><g><path d="M35.78 25.865a.856.856 0 0 0-.855.856v3.616a2.57 2.57 0 0 1-2.567 2.567H4.35a2.57 2.57 0 0 1-2.567-2.567V9.953A2.57 2.57 0 0 1 4.35 7.386h5.917a.856.856 0 1 0 0-1.711H4.35A4.283 4.283 0 0 0 .072 9.953v20.384a4.283 4.283 0 0 0 4.278 4.278h28.008a4.283 4.283 0 0 0 4.278-4.278v-3.616a.856.856 0 0 0-.855-.856z"/></g></g></g></svg>