<svg id="startup" xmlns="http://www.w3.org/2000/svg" width="18.635" height="34.872" viewBox="0 0 18.635 34.872">
  <g id="Group_13" data-name="Group 13" transform="translate(0 0)">
    <path id="Path_46" data-name="Path 46" d="M137.578,20.227l-2.672-1.537a23.764,23.764,0,0,0,1-5.8,16.008,16.008,0,0,0-.2-2.53.511.511,0,1,0-1.009.162,14.985,14.985,0,0,1,.186,2.368c0,3.906-2.778,11.107-3.412,12.7h-5.916c-.15-.376-.42-1.066-.743-1.945a.511.511,0,0,0-.959.352c.238.648.448,1.2.6,1.593h-4.239V20.965l2.2-1.264q.29.973.644,2.036a.511.511,0,0,0,.969-.323,30.566,30.566,0,0,1-1.886-8.518,13.869,13.869,0,0,1,1.48-6.369H133.4a13.367,13.367,0,0,1,.748,1.773.511.511,0,1,0,.968-.328,14.844,14.844,0,0,0-6.358-7.91.511.511,0,0,0-.486,0,12.679,12.679,0,0,0-2.32,1.743.511.511,0,0,0,.693.75,13.022,13.022,0,0,1,1.87-1.449,14.218,14.218,0,0,1,4.309,4.4H124.2a14.188,14.188,0,0,1,.883-1.259.511.511,0,1,0-.8-.631,14.675,14.675,0,0,0-3.158,9.281,23.111,23.111,0,0,0,1,5.795l-2.673,1.537a.511.511,0,0,0-.256.443V26.1a.511.511,0,0,0,.511.511h4.415a4.623,4.623,0,0,0-.784,2.541,5.57,5.57,0,0,0,1.884,3.734.511.511,0,0,0,.768-.12l.187-.3,1.952,2.231a.511.511,0,0,0,.769,0l1.952-2.231.187.3a.511.511,0,0,0,.768.12,5.571,5.571,0,0,0,1.884-3.734,4.624,4.624,0,0,0-.784-2.541h4.415a.511.511,0,0,0,.511-.511V20.669A.511.511,0,0,0,137.578,20.227Zm-7.508,8.217c0,1.077-1.092,1.79-1.554,2.043-.463-.252-1.552-.96-1.552-2.043a3.079,3.079,0,0,1,.621-1.828h1.865A3.078,3.078,0,0,1,130.07,28.444Zm1.5,3.233-.207-.336a.511.511,0,0,0-.82-.069l-2.024,2.313-2.024-2.313a.511.511,0,0,0-.819.069l-.207.336a4.1,4.1,0,0,1-1.1-2.521,3.82,3.82,0,0,1,1.06-2.541h.962a4.022,4.022,0,0,0-.443,1.828c0,2.032,2.275,3.041,2.372,3.083a.511.511,0,0,0,.406,0c.1-.042,2.372-1.051,2.372-3.083a4.022,4.022,0,0,0-.443-1.828h.962a3.819,3.819,0,0,1,1.06,2.541A4.1,4.1,0,0,1,131.566,31.677Zm5.246-6.083h-4.238c.439-1.117,1.3-3.4,2.041-5.892l2.2,1.263v4.629Z" transform="translate(-119.199 0)"/>
    <path id="Path_47" data-name="Path 47" d="M187.89,147.072a4.639,4.639,0,1,0,4.639-4.639A4.644,4.644,0,0,0,187.89,147.072Zm8.256,0a3.617,3.617,0,1,1-3.617-3.617A3.621,3.621,0,0,1,196.146,147.072Z" transform="translate(-183.212 -132.732)"/>
    <path id="Path_48" data-name="Path 48" d="M220.215,177.2a2.437,2.437,0,1,0,2.437-2.437A2.44,2.44,0,0,0,220.215,177.2Zm3.853,0a1.416,1.416,0,1,1-1.416-1.416A1.417,1.417,0,0,1,224.068,177.2Z" transform="translate(-213.335 -162.855)"/>
  </g>
</svg>
