<svg xmlns="http://www.w3.org/2000/svg" width="42.581" height="53.746" viewBox="0 0 42.581 53.746">
  <defs>
    <style>
      .cls-1 {
        fill: #252525;
      }
    </style>
  </defs>
  <g id="surface1" transform="translate(-0.5)">
    <path id="Path_27" data-name="Path 27" class="cls-1" d="M29.463.415A1.3,1.3,0,0,0,28.529,0H7.562A7.092,7.092,0,0,0,.5,7.049V46.7a7.092,7.092,0,0,0,7.062,7.05H36.019a7.092,7.092,0,0,0,7.062-7.05V15.215a1.4,1.4,0,0,0-.376-.909Zm.376,4.167,8.867,9.308H32.942a3.092,3.092,0,0,1-3.1-3.09ZM36.019,51.15H7.562A4.5,4.5,0,0,1,3.1,46.7V7.049A4.5,4.5,0,0,1,7.562,2.6H27.243v8.2a5.679,5.679,0,0,0,5.7,5.686h7.542V46.7A4.488,4.488,0,0,1,36.019,51.15Zm0,0"/>
    <path id="Path_28" data-name="Path 28" class="cls-1" d="M111.839,401.934H90.47a1.3,1.3,0,0,0,0,2.6h21.382a1.3,1.3,0,1,0-.013-2.6Zm0,0" transform="translate(-79.364 -359.742)"/>
    <path id="Path_29" data-name="Path 29" class="cls-1" d="M120.651,180.644,126,174.892v14.177a1.3,1.3,0,0,0,2.6,0V174.892l5.349,5.751a1.3,1.3,0,0,0,1.9-1.766l-7.608-8.166a1.289,1.289,0,0,0-1.9,0l-7.608,8.166a1.294,1.294,0,0,0,.065,1.83A1.324,1.324,0,0,0,120.651,180.644Zm0,0" transform="translate(-105.507 -152.42)"/>
  </g>
</svg>
