<svg xmlns="http://www.w3.org/2000/svg" width="28" height="27" viewBox="0 0 28 27"><g><g><g><path d="M12.295 1.977V.323h1.655v1.654z"/></g><g><path d="M8.986 1.977V.323h1.655v1.654z"/></g><g><path d="M23.024.323h-7.42v1.654h7.42a2.482 2.482 0 0 1 2.482 2.482v18.198a2.482 2.482 0 0 1-2.482 2.482H4.826a2.482 2.482 0 0 1-2.482-2.482V4.46a2.482 2.482 0 0 1 2.482-2.482H7.33V.323H4.826A4.141 4.141 0 0 0 .69 4.459v18.198a4.141 4.141 0 0 0 4.136 4.136h18.198a4.141 4.141 0 0 0 4.136-4.136V4.46A4.141 4.141 0 0 0 23.024.323z"/></g><g><path d="M6.238 14.628l-1.17 1.17 4.72 4.72L22.783 7.525l-1.17-1.17L9.79 18.18z"/></g></g></g></svg>