<svg xmlns="http://www.w3.org/2000/svg" xmlns:xlink="http://www.w3.org/1999/xlink" width="33" height="35" viewBox="0 0 33 35">
  <defs>
    <linearGradient id="virtual-class-a" x1="89.905%" x2="9.029%" y1="96.056%" y2="0%">
      <stop offset="0%" stop-color="#E9A58B"/>
      <stop offset="54.654%" stop-color="#FFEC57"/>
      <stop offset="100%" stop-color="#FFF9CD"/>
    </linearGradient>
    <linearGradient id="virtual-class-c" x1="95.532%" x2="12.605%" y1="100%" y2="4.801%">
      <stop offset="0%" stop-color="#FF723B"/>
      <stop offset="84.564%" stop-color="#FFDF57"/>
      <stop offset="100%" stop-color="#FFED5B"/>
    </linearGradient>
    <path id="virtual-class-b" d="M202.5,401 C204.263253,401 205.721969,402.303878 205.964563,404.00005 L215,404 C217.209139,404 219,405.790861 219,408 L219,408 L219,424 C219,426.209139 217.209139,428 215,428 L215,428 L205.581,428 L205.581,433.581 L211.162695,433.581348 C211.71498,433.581348 212.162695,434.029063 212.162695,434.581348 C212.162695,435.094183 211.776655,435.516855 211.279316,435.57462 L211.162695,435.581348 L194,435.581348 C193.447715,435.581348 193,435.133632 193,434.581348 C193,434.068512 193.38604,433.64584 193.883379,433.588075 L194,433.581348 L199.067,433.581 L199.067,428 L190,428 C187.857805,428 186.108921,426.316032 186.004895,424.19964 L186,424 L186,408 C186,405.790861 187.790861,404 190,404 L190,404 L199.035437,404.00005 C199.278031,402.303878 200.736747,401 202.5,401 Z M203.581,428 L201.067,428 L201.067,433.581 L203.581,433.581 L203.581,428 Z M215,406 L205.662691,406.001038 C205.100747,407.182952 203.89579,408 202.5,408 C201.10421,408 199.899253,407.182952 199.337309,406.001038 L190,406 C188.895431,406 188,406.895431 188,408 L188,408 L188,424 C188,425.104569 188.895431,426 190,426 L190,426 L215,426 C216.104569,426 217,425.104569 217,424 L217,424 L217,408 C217,406.895431 216.104569,406 215,406 L215,406 Z M195.591349,411.640701 C197.171667,411.117714 198.566995,410.911402 199.782493,411.034657 C200.83641,411.141528 201.837241,411.50449 202.777205,412.115711 L202.777205,412.115711 L202.800787,412.131635 L202.888562,412.081323 C203.848456,411.544734 204.739381,411.205724 205.567069,411.070453 L205.567069,411.070453 L205.813485,411.03599 C206.884606,410.911859 208.109558,411.123957 209.494363,411.654014 L209.494363,411.654014 L210.048382,411.866074 L210.048382,423.148709 L208.90808,422.760243 C207.915548,422.422118 206.946324,422.299702 205.993272,422.389099 C205.033818,422.479097 204.094252,422.771055 203.169156,423.269344 L203.169156,423.269344 L202.705318,423.519184 L202.271352,423.220455 C201.603823,422.760949 200.725903,422.480338 199.624972,422.389978 C198.488859,422.296731 197.315455,422.423289 196.100591,422.77271 L196.100591,422.77271 L195,423.089264 L195,411.836401 Z M206.401955,412.726094 L206.191653,412.733129 L206.012008,412.749028 C205.236943,412.83885 204.300816,413.214865 203.216217,413.890605 L203.464,413.739 L203.464292,421.236285 C204.014278,421.02289 204.572414,420.86594 205.138107,420.765914 L205.507382,420.708851 L205.83222,420.672134 C206.596104,420.600481 207.365108,420.636469 208.137394,420.779093 L208.137394,420.779093 L208.323506,420.816229 L208.323506,413.068902 L208.115259,413.004461 C207.382757,412.787444 206.740889,412.699021 206.191653,412.733129 Z M199.363128,412.731697 C198.613366,412.693006 197.741274,412.810228 196.749132,413.089058 L196.749132,413.089058 L196.724502,413.095632 L196.724502,420.849857 L197.151451,420.774694 C197.909307,420.655413 198.658142,420.612848 199.39728,420.647495 L199.39728,420.647495 L199.766037,420.671255 C200.521377,420.73325 201.211498,420.872307 201.83435,421.090272 L201.83395,413.559338 C201.120265,413.095791 200.380998,412.828693 199.608516,412.750361 L199.608516,412.750361 Z"/>
  </defs>
  <g fill="none" fill-rule="evenodd" transform="translate(-186 -401)">
    <use fill="url(#virtual-class-a)" xlink:href="#virtual-class-b"/>
    <use fill="url(#virtual-class-c)" xlink:href="#virtual-class-b"/>
  </g>
</svg>
